<svg xmlns="http://www.w3.org/2000/svg" width="25" height="26" fill="none" viewBox="0 0 25 26"><path fill="#000" d="M12.498 0C5.604 0 0 5.612 0 12.516c0 6.903 5.604 12.519 12.498 12.519S25 19.419 25 12.515C25 5.613 19.392 0 12.498 0"/><path fill="#000" d="M23.648 15.178c.729-2.976.25-6.063-1.341-8.692a11.4 11.4 0 0 0-7.079-5.204A11.45 11.45 0 0 0 1.35 9.712a11.44 11.44 0 0 0 1.338 8.693 11.4 11.4 0 0 0 7.08 5.206 11.46 11.46 0 0 0 13.88-8.431z"/><path fill="#d9b56e" d="M22.624 6.292A11.76 11.76 0 0 0 15.317.92a12 12 0 0 0-2.82-.342A11.82 11.82 0 0 0 .988 9.623a11.8 11.8 0 0 0 1.382 8.976 11.77 11.77 0 0 0 7.308 5.374 11.8 11.8 0 0 0 2.821.342c5.473 0 10.207-3.72 11.51-9.049.75-3.074.26-6.26-1.384-8.974zM9.768 23.611a11.4 11.4 0 0 1-7.08-5.206A11.43 11.43 0 0 1 1.35 9.711a11.45 11.45 0 0 1 13.878-8.429 11.4 11.4 0 0 1 7.079 5.204 11.44 11.44 0 0 1 1.34 8.692 11.46 11.46 0 0 1-13.88 8.43z"/><path fill="#d9b56e" d="m12.552 5.614-2.323 1.43.004-1.19H8.57v2.211L3.43 11.23l.83 1.415 4.31-2.557v4.995h1.73v-1.84c-.004-1.372 1.373-2.004 2.197-2.004s2.179.458 2.197 2.004v1.84h1.73v-1.915c0-1.11-.357-1.759-.68-2.15-.605-.716-1.559-1.42-3.25-1.42a3.7 3.7 0 0 0-2.277.773l.004-1.262 2.328-1.382 8.25 4.634.761-1.488-9.011-5.255z"/><path fill="#d9b56e" d="M17.756 13.615v1.448c.003 1.36-1.37 2.021-2.197 2.021s-2.179-.49-2.197-2.02v-1.45h-1.73v1.45c.001 1.359-1.373 2.02-2.198 2.02s-2.179-.49-2.197-2.02v-1.45h-1.73v1.525c0 1.1.357 1.742.68 2.128.605.71 1.56 1.404 3.25 1.404.877 0 2.233-.364 3.06-1.206.61.633 1.532 1.206 3.065 1.206.996 0 2.614-.47 3.365-1.578.29-.426.56-1.049.56-1.664v-1.816h-1.731z"/></svg>