<svg width="653" height="181" viewBox="0 0 653 181" fill="none" xmlns="http://www.w3.org/2000/svg">
<g clip-path="url(#clip0_29_85)">
<path d="M75.2004 93.3H73.4004C71.7004 86.7 69.9004 80.7 61.0004 78.2C56.6004 76.9 52.3004 76.5 47.1004 76.5C29.7004 76.5 19.7004 85.2 20.6004 107.1C21.5004 129 25.6004 140.1 47.5004 140.1C69.4004 140.1 54.9004 139.6 57.4004 138.3C59.4004 137.3 60.7004 135.9 60.7004 130.2V119.7C60.7004 112.4 59.5004 111.3 48.9004 109.8V108H85.5004V109.8C78.5004 111.4 77.0004 112.2 77.0004 118.2V128.9C77.0004 133 77.0004 140.2 76.8004 143.6C67.3004 146.7 57.3004 147.8 47.0004 147.8C16.4004 147.8 -0.0996094 132.2 -0.0996094 110C-0.0996094 87.8 22.2004 69.8 49.1004 69.8C49.1004 69.8 64.6004 71.4 68.4004 73.3C68.4004 73.3 71.7004 74.2 72.2004 71.1L74.9004 70.4L75.1004 93.2L75.2004 93.3Z" fill="#657D81"/>
<path d="M124.2 113.9C129.5 113.9 133.4 113.3 136.2 111.1C139.8 108.4 141.4 104.8 141.4 98.7C141.4 86.7 133.9 82.3 126.5 82.3C119.1 82.3 122 82.5 121.2 83C120.3 83.5 119.8 84.2 119.8 86.3V134.5C119.8 143.2 120.6 144.1 130.2 145.7V147.4H93.7002V145.7C103.3 144 104.1 143.4 104.1 134.5V92.6C104.1 83.9 103.3 82.7 93.7002 81.5V79.8H128.5C139.1 79.8 145.6 80.7 150.9 83.7C155.8 86.4 158.7 90.7 158.7 96C158.7 106 149.7 110.7 143.2 113C136.7 115.3 141.6 113.6 141.3 113.7C141.5 114 142.6 114 142.9 114.4C145.4 118 151.4 126.2 154.7 130.5C159.6 136.8 161.3 138.9 164.2 141.6C167.2 144.4 169 145.3 174 146.7L173.6 148.2H167.8C152.3 147.7 148.1 145.3 143.7 139.8C139.2 134.2 135.2 128.4 131 121.9C128.6 118.2 126.8 116.8 123.7 116.4C123.3 115.6 124.4 113.9 124.4 113.9H124.2Z" fill="#657D81"/>
<path d="M234.1 131.7C233.5 135.3 232.8 145.6 232.1 148.1L177.7 147.9V146.2C188 145 188.8 144.4 188.8 135.2V93C188.8 83.7 188.2 82.8 179.7 82V80.3H210.9C222.6 80.3 226.6 80.3 228.8 79.5C228.8 83.4 228.4 88.6 228.1 94.1L225.7 93.9C225.3 91.6 225.1 90.8 223.3 89.2C221.5 87.6 217.6 87.4 210.6 87.4H206.6C204.1 87.4 203.6 87.8 203.6 89.9V107.7H213.2C220.4 107.7 221.9 107 223.7 101H225.6V119.6H223.7C221.3 115.5 221.7 113.9 213.2 113.9H203.6V132C203.6 139.3 205.4 140.6 212.8 140.7H217.8C224.8 140.7 226.5 140.1 229.5 137.3C229.5 137.3 230.7 136.2 231 131.6H234.1V131.7Z" fill="#657D81"/>
<path d="M321.3 135.6C321.8 142.7 320.7 144 332.4 145.3V147.6H303.2V145.8C312.6 144.7 311.6 143.1 312.1 135.8C312.4 132.1 312.7 128 312.7 119.4V92.2C312.7 90 312 87.6 310.8 86.3C307.5 82.7 307.2 82.4 301.7 81.7V80H320.7L367.4 121V107.9C367.4 97.1 367 94.4 366.9 91.5C366.5 84.2 365 83.7 357.9 82.3V80H386.3V82.3C378 83.8 376.8 84.3 376.5 91.4C376.4 94.6 376.5 97.1 376.5 107.9V148.9H374.4L321.4 103.3V135.5L321.3 135.6Z" fill="#657D81"/>
<path d="M434.9 148.5H428C420.5 127.7 411.8 106.8 404.1 86.1001C400.3 75.9001 399.1 74.1001 389.9 72.7001V71.0001L428.3 70.6001V73.3001C417.7 74.8001 421 77.1001 422 83.6001C426.7 96.8001 431.6 109.1 436.4 122C443.1 106.3 453.2 81.1001 457.4 70.8001H465C473.2 88.7001 477.7 104.5 485.6 121.7L500.6 84.8001C502.1 78.0001 505.8 75.2001 494.8 73.6001V71.0001H522.3V73.6001C512.1 75.1001 511.2 76.7001 506.9 87.5001C503.3 96.4001 492.4 125.7 483.9 148.7H478L457.1 97.8001L434.9 148.7V148.5Z" fill="#657D81"/>
<path d="M525.1 147.2V145.5C534.5 144.2 535.2 143.4 535.2 133.8V93C535.2 83.3 534.3 82.5 525.1 81.4V79.7H560.9V81.4C551.7 82.8 550.7 83.3 550.7 93V133.7C550.7 143.7 551.5 144.2 560.9 145.5V147.2H525.1Z" fill="#657D81"/>
<path d="M285.5 89.5C283.4 87.1 279.8 87.7 272.8 87.7H268.8C266.3 87.7 265.8 88.1 265.8 90.2V108H275.4C282.6 108 284.1 107.3 285.9 101.3H287.8V119.9H285.9C283.5 115.8 283.9 114.2 275.4 114.2H265.8V132.3C265.8 139.6 267.6 140.9 275 141H280C287 141 288.8 140.5 291.8 137.7C291.8 137.7 293.2 136.4 293.1 131.9H296.2C295.6 135.5 294.9 145.8 294.2 148.3L239.8 148.1V146.4C250.1 145.2 250.9 144.6 250.9 135.4V93.2C250.9 83.9 250.3 83 241.8 82.2V80.5H273C284.7 80.5 288.7 80.5 290.9 79.7C290.9 83.6 290.5 88.8 290.2 94.3L287.8 94.1C287 91.4 285.4 89.4 285.4 89.4L285.5 89.5Z" fill="#657D81"/>
<path d="M587.5 135.3C588 142.4 586.9 143.7 598.6 145V147.3H569.4V145.5C578.8 144.4 577.8 142.8 578.3 135.5C578.6 131.8 578.9 127.7 578.9 119.1V91.9001C578.9 89.7001 578.1 87.7001 576.9 86.4001C573.6 82.8001 573.4 82.0001 567.8 81.3001V79.6001H586.8L633.5 120.6V107.5C633.5 96.7001 633.1 94.0001 633 91.1001C632.6 83.8001 631.1 83.3001 624 81.9001V79.6001H652.4V81.9001C644.1 83.4001 642.9 83.9001 642.6 91.0001C642.5 94.2001 642.6 96.7001 642.6 107.5V148.5H640.5L587.5 102.9V135.1V135.3Z" fill="#657D81"/>
<path d="M112.9 172.2C112.9 169.5 112.9 169 112.9 168.5C112.9 167.9 112.7 167.6 112.1 167.5C111.9 167.5 111.6 167.5 111.4 167.5C111.2 167.5 111.1 167.5 111.1 167.3C111.1 167.1 111.2 167.1 111.5 167.1C112.5 167.1 113.7 167.1 114.2 167.1C114.7 167.1 116 167.1 117.1 167.1C119.5 167.1 122.7 167.1 124.7 169.1C125.7 170 126.5 171.5 126.5 173.6C126.5 175.7 125.5 177.5 124.4 178.5C123.5 179.3 121.5 180.6 118 180.6C114.5 180.6 116.5 180.6 115.8 180.5C115.1 180.4 114.4 180.4 113.9 180.4C113.4 180.4 113.3 180.4 112.8 180.4C112.4 180.4 111.9 180.4 111.5 180.4C111.1 180.4 111.1 180.4 111.1 180.2C111.1 180 111.1 180.1 111.4 180.1C111.7 180.1 111.9 180.1 112.1 180.1C112.5 180.1 112.6 179.6 112.7 179.1C112.7 178.4 112.7 177 112.7 175.4V172.3L112.9 172.2ZM115.2 174.1C115.2 176 115.2 177.3 115.2 177.6C115.2 178 115.2 178.7 115.4 178.9C115.6 179.2 116.4 179.6 117.9 179.6C119.4 179.6 121.1 179.2 122.3 178.3C123.5 177.3 123.9 175.7 123.9 173.9C123.9 172.1 122.9 170.2 122.1 169.5C120.3 168 118.2 167.7 116.7 167.7C115.2 167.7 115.6 167.7 115.5 167.8C115.3 167.8 115.3 168 115.3 168.2C115.3 168.8 115.3 170.3 115.3 171.7V173.9L115.2 174.1Z" fill="#133E2F" stroke="#133E2F" stroke-width="0.5" stroke-miterlimit="10"/>
<path d="M142.6 172.2C142.6 169.5 142.6 169 142.6 168.5C142.6 167.9 142.4 167.6 141.8 167.5C141.6 167.5 141.3 167.5 141.1 167.5C140.9 167.5 140.8 167.5 140.8 167.3C140.8 167.1 140.9 167.1 141.2 167.1C142.1 167.1 143 167.1 143.9 167.1C144.8 167.1 148.3 167.1 148.7 167.1C149.1 167.1 149.4 167.1 149.5 167C149.5 167 149.7 167 149.8 167C149.9 167 149.9 167 149.9 167.2C149.9 167.4 149.9 167.5 149.7 168.3C149.7 168.5 149.7 169.2 149.7 169.5C149.7 169.5 149.7 169.7 149.5 169.7C149.3 169.7 149.3 169.6 149.3 169.4C149.3 169.2 149.3 169 149.2 168.8C149.1 168.5 148.9 168.3 147.9 168.2C147.6 168.2 145.6 168.2 145.2 168.2C144.8 168.2 145.1 168.2 145.1 168.4V172.8C145.1 172.9 145.1 173 145.2 173C145.6 173 147.8 173 148.2 173C148.7 173 148.9 173 149.1 172.7C149.2 172.6 149.3 172.5 149.4 172.5C149.5 172.5 149.5 172.5 149.5 172.6C149.5 172.7 149.5 173 149.3 173.9C149.3 174.3 149.3 175 149.3 175.1C149.3 175.2 149.3 175.4 149.1 175.4C148.9 175.4 148.9 175.2 148.9 175.1C148.9 174.9 148.9 174.8 148.9 174.6C148.9 174.2 148.5 174 147.8 173.9C147.4 173.9 145.6 173.9 145.1 173.9C144.6 173.9 145 173.9 145 174.1V175.5C145 176.1 145 177.7 145 178.2C145 179.4 145.3 179.7 147.3 179.7C149.3 179.7 148.6 179.7 149.1 179.5C149.6 179.3 149.8 178.9 150 178.2C150 178 150 177.9 150.2 177.9C150.4 177.9 150.4 178 150.4 178.2C150.4 178.6 150.2 179.8 150.2 180.2C150.1 180.7 149.9 180.7 149.2 180.7C147.5 180.7 145.8 180.6 143.9 180.6C142 180.6 142.4 180.6 141.5 180.6C140.6 180.6 141.1 180.6 141.1 180.4C141.1 180.2 141.1 180.3 141.4 180.3C141.7 180.3 141.9 180.3 142.1 180.3C142.5 180.3 142.6 179.8 142.7 179.3C142.7 178.6 142.7 177.2 142.7 175.6V172.5L142.6 172.2Z" fill="#133E2F" stroke="#133E2F" stroke-width="0.5" stroke-miterlimit="10"/>
<path d="M165.6 168.8C165.2 167.8 164.8 167.6 164.2 167.5C163.9 167.5 163.6 167.5 163.5 167.5C163.4 167.5 163.3 167.5 163.3 167.3C163.3 167.1 163.5 167.1 163.8 167.1C164.8 167.1 165.9 167.1 166.6 167.1C167.3 167.1 168 167.1 168.9 167.1C169.8 167.1 169.3 167.1 169.3 167.3C169.3 167.5 169.2 167.5 169 167.5C168.7 167.5 168.4 167.5 168.3 167.6C168.2 167.6 168.1 167.8 168.1 168C168.1 168.2 168.3 168.7 168.5 169.4C169.5 171.9 170.8 175 171.8 177.5C172.6 175.6 175.1 169.8 175.6 168.7C175.6 168.5 175.8 168.2 175.8 168C175.8 167.8 175.8 167.7 175.6 167.7C175.4 167.7 175.1 167.7 174.8 167.7C174.5 167.7 174.5 167.7 174.5 167.6C174.5 167.5 174.7 167.4 175 167.4C176 167.4 176.8 167.4 177 167.4C177.2 167.4 178.2 167.4 178.8 167.4C179.4 167.4 179.2 167.4 179.2 167.6C179.2 167.8 179.1 167.8 178.9 167.8C178.7 167.8 178.3 167.8 178 168C177.8 168.2 177.5 168.5 177 169.6C176.3 171.3 175.7 172.2 174.7 174.4C173.5 177 172.6 178.9 172.2 179.8C171.7 180.8 171.6 181.1 171.3 181.1C171 181.1 170.9 180.9 170.6 180L165.8 169.3L165.6 168.8Z" fill="#133E2F" stroke="#133E2F" stroke-width="0.5" stroke-miterlimit="10"/>
<path d="M193.3 172.2C193.3 169.5 193.3 169 193.3 168.5C193.3 167.9 193.1 167.6 192.5 167.5C192.3 167.5 192 167.5 191.8 167.5C191.6 167.5 191.5 167.5 191.5 167.3C191.5 167.1 191.6 167.1 191.9 167.1C192.8 167.1 193.7 167.1 194.6 167.1C195.5 167.1 199 167.1 199.4 167.1C199.8 167.1 200.1 167.1 200.2 167C200.2 167 200.4 167 200.5 167C200.6 167 200.6 167 200.6 167.2C200.6 167.4 200.6 167.5 200.4 168.3C200.4 168.5 200.4 169.2 200.4 169.5C200.4 169.5 200.4 169.7 200.2 169.7C200 169.7 200 169.6 200 169.4C200 169.2 200 169 199.9 168.8C199.8 168.5 199.6 168.3 198.6 168.2C198.3 168.2 196.3 168.2 195.9 168.2C195.5 168.2 195.8 168.2 195.8 168.4V172.8C195.8 172.9 195.8 173 195.9 173C196.3 173 198.5 173 198.9 173C199.4 173 199.6 173 199.8 172.7C199.9 172.6 200 172.5 200.1 172.5C200.2 172.5 200.2 172.5 200.2 172.6C200.2 172.7 200.2 173 200 173.9C200 174.3 200 175 200 175.1C200 175.2 200 175.4 199.8 175.4C199.6 175.4 199.6 175.2 199.6 175.1C199.6 174.9 199.6 174.8 199.6 174.6C199.6 174.2 199.2 174 198.5 173.9C198.1 173.9 196.3 173.9 195.8 173.9C195.3 173.9 195.7 173.9 195.7 174.1V175.5C195.7 176.1 195.7 177.7 195.7 178.2C195.7 179.4 196 179.7 198 179.7C200 179.7 199.3 179.7 199.8 179.5C200.3 179.3 200.5 178.9 200.7 178.2C200.7 178 200.7 177.9 200.9 177.9C201.1 177.9 201.1 178 201.1 178.2C201.1 178.6 200.9 179.8 200.9 180.2C200.8 180.7 200.6 180.7 199.9 180.7C198.2 180.7 196.5 180.6 194.6 180.6C192.7 180.6 193.1 180.6 192.2 180.6C191.3 180.6 191.8 180.6 191.8 180.4C191.8 180.2 191.8 180.3 192.1 180.3C192.4 180.3 192.6 180.3 192.8 180.3C193.2 180.3 193.3 179.8 193.4 179.3C193.4 178.6 193.4 177.2 193.4 175.6V172.5L193.3 172.2Z" fill="#133E2F" stroke="#133E2F" stroke-width="0.5" stroke-miterlimit="10"/>
<path d="M219.7 175.3C219.7 177.5 219.7 178.8 220.1 179.1C220.4 179.4 220.9 179.5 222.4 179.5C223.9 179.5 224.2 179.5 224.6 179C224.8 178.8 225.1 178.3 225.1 177.9C225.1 177.7 225.1 177.6 225.3 177.6C225.5 177.6 225.5 177.6 225.5 177.9C225.5 178.2 225.4 179.4 225.2 179.9C225.1 180.3 225 180.4 224 180.4C222.2 180.4 220.5 180.3 218.5 180.3C216.5 180.3 217 180.3 216.1 180.3C215.2 180.3 215.7 180.3 215.7 180.1C215.7 179.9 215.7 180 216 180C216.3 180 216.5 180 216.7 180C217.1 180 217.2 179.5 217.3 179C217.3 178.3 217.3 176.9 217.3 175.3V172.2C217.3 169.5 217.3 169 217.3 168.5C217.3 167.9 217.1 167.6 216.5 167.5C216.3 167.5 216.1 167.5 215.9 167.5C215.7 167.5 215.6 167.5 215.6 167.3C215.6 167.1 215.7 167.1 216 167.1C216.9 167.1 218.1 167.1 218.6 167.1C219.1 167.1 220.4 167.1 221.2 167.1C222 167.1 221.6 167.1 221.6 167.3C221.6 167.5 221.5 167.5 221.3 167.5C221.1 167.5 220.8 167.5 220.6 167.5C220.1 167.5 219.9 167.9 219.9 168.5C219.9 169.1 219.9 169.6 219.9 172.2V175.3H219.7Z" fill="#133E2F" stroke="#133E2F" stroke-width="0.5" stroke-miterlimit="10"/>
<path d="M238.9 173.7C238.9 170.7 241.1 166.8 246.8 166.8C252.5 166.8 254.5 169.3 254.5 173.4C254.5 177.5 251.5 180.6 246.6 180.6C241.7 180.6 238.9 176.8 238.9 173.7ZM251.8 174.1C251.8 170.2 249.3 167.7 246.2 167.7C243.1 167.7 241.5 168.8 241.5 173.2C241.5 177.6 243.7 179.8 247.3 179.8C250.9 179.8 251.7 179.2 251.7 174.1H251.8Z" fill="#133E2F" stroke="#133E2F" stroke-width="0.5" stroke-miterlimit="10"/>
<path d="M270.5 172.2C270.5 169.5 270.5 169 270.5 168.5C270.5 167.9 270.3 167.6 269.7 167.5C269.5 167.5 269.2 167.5 269 167.5C268.8 167.5 268.7 167.5 268.7 167.3C268.7 167.1 268.8 167.1 269.1 167.1C270.1 167.1 271.3 167.1 271.8 167.1C272.6 167.1 273.7 167.1 274.6 167.1C277 167.1 277.7 167.8 278.2 168.2C278.6 168.6 279.1 169.3 279.1 170.5C279.1 172.7 277.1 174.5 274.4 174.5C271.7 174.5 274.1 174.5 274 174.5C274 174.5 273.8 174.5 273.8 174.3C273.8 174.1 273.9 174.1 274.3 174.1C275.4 174.1 276.8 173 276.8 171.2C276.8 169.4 276.8 169.5 275.7 168.6C275 168 274.2 167.9 273.7 167.9C273.2 167.9 273.1 167.9 273 167.9C273 167.9 272.8 168 272.8 168.2V175.2C272.8 176.8 272.8 178.2 272.8 179C272.8 179.5 273 179.9 273.5 179.9C273.8 179.9 274.2 179.9 274.5 179.9C274.8 179.9 274.8 179.9 274.8 180C274.8 180.1 274.6 180.2 274.4 180.2C273.1 180.2 271.9 180.2 271.5 180.2C271.1 180.2 269.9 180.2 269.1 180.2C268.3 180.2 268.7 180.2 268.7 180C268.7 179.8 268.7 179.9 269 179.9C269.3 179.9 269.5 179.9 269.7 179.9C270.1 179.9 270.2 179.4 270.3 178.9C270.3 178.2 270.3 176.8 270.3 175.2V172.1L270.5 172.2Z" fill="#133E2F" stroke="#133E2F" stroke-width="0.5" stroke-miterlimit="10"/>
<path d="M309.1 178.1C309.3 179.2 309.5 179.7 310 179.9C310.6 180.1 310.9 180.1 311.2 180.1C311.5 180.1 311.5 180.1 311.5 180.2C311.5 180.3 311.3 180.4 311 180.4C310.5 180.4 307.9 180.4 307.1 180.3C306.7 180.3 306.5 180.3 306.5 180.1C306.5 179.9 306.5 180 306.7 179.9C306.8 179.9 306.9 179.6 306.7 179.1L305.5 171.3L301.3 179.4C300.9 180.2 300.8 180.4 300.6 180.4C300.4 180.4 300.2 180 299.9 179.5C299.4 178.7 297.9 176 297.7 175.5C297.5 175.1 296.3 172.8 295.7 171.5L294.7 178.6C294.7 178.9 294.7 179.1 294.7 179.4C294.7 179.7 294.9 179.9 295.3 180C295.6 180 295.9 180 296.1 180C296.3 180 296.4 180 296.4 180.1C296.4 180.3 296.2 180.3 295.9 180.3C295.1 180.3 294.2 180.3 293.9 180.3C293.6 180.3 292.6 180.3 292 180.3C291.4 180.3 291.7 180.3 291.7 180.1C291.7 179.9 291.8 180 292 180C292.2 180 292.3 180 292.6 180C293.1 179.9 293.3 179.2 293.4 178.6L295.3 167.1C295.3 166.8 295.5 166.6 295.6 166.6C295.7 166.6 295.9 166.6 296.1 167.1L301.3 177L306.5 167C306.7 166.7 306.7 166.6 306.9 166.6C307.1 166.6 307.2 166.8 307.2 167.1L308.9 178L309.1 178.1Z" fill="#133E2F" stroke="#133E2F" stroke-width="0.5" stroke-miterlimit="10"/>
<path d="M326.4 172.2C326.4 169.5 326.4 169 326.4 168.5C326.4 167.9 326.2 167.6 325.6 167.5C325.4 167.5 325.1 167.5 324.9 167.5C324.7 167.5 324.6 167.5 324.6 167.3C324.6 167.1 324.7 167.1 325 167.1C325.9 167.1 326.8 167.1 327.7 167.1C328.6 167.1 332.1 167.1 332.5 167.1C332.9 167.1 333.2 167.1 333.3 167C333.3 167 333.5 167 333.6 167C333.7 167 333.7 167 333.7 167.2C333.7 167.4 333.7 167.5 333.5 168.3C333.5 168.5 333.5 169.2 333.5 169.5C333.5 169.5 333.5 169.7 333.3 169.7C333.1 169.7 333.1 169.6 333.1 169.4C333.1 169.2 333.1 169 333 168.8C332.9 168.5 332.7 168.3 331.7 168.2C331.4 168.2 329.4 168.2 329 168.2C328.6 168.2 328.9 168.2 328.9 168.4V172.8C328.9 172.9 328.9 173 329 173C329.4 173 331.6 173 332 173C332.5 173 332.7 173 332.9 172.7C333 172.6 333.1 172.5 333.2 172.5C333.3 172.5 333.3 172.5 333.3 172.6C333.3 172.7 333.3 173 333.1 173.9C333.1 174.3 333.1 175 333.1 175.1C333.1 175.2 333.1 175.4 332.9 175.4C332.7 175.4 332.7 175.2 332.7 175.1C332.7 174.9 332.7 174.8 332.7 174.6C332.7 174.2 332.3 174 331.6 173.9C331.2 173.9 329.4 173.9 328.9 173.9C328.4 173.9 328.8 173.9 328.8 174.1V175.5C328.8 176.1 328.8 177.7 328.8 178.2C328.8 179.4 329.1 179.7 331.1 179.7C333.1 179.7 332.4 179.7 332.9 179.5C333.4 179.3 333.6 178.9 333.8 178.2C333.8 178 333.8 177.9 334 177.9C334.2 177.9 334.2 178 334.2 178.2C334.2 178.6 334 179.8 334 180.2C333.9 180.7 333.7 180.7 333 180.7C331.3 180.7 329.6 180.6 327.7 180.6C325.8 180.6 326.2 180.6 325.3 180.6C324.4 180.6 324.9 180.6 324.9 180.4C324.9 180.2 324.9 180.3 325.2 180.3C325.5 180.3 325.7 180.3 325.9 180.3C326.3 180.3 326.4 179.8 326.5 179.3C326.5 178.6 326.5 177.2 326.5 175.6V172.5L326.4 172.2Z" fill="#133E2F" stroke="#133E2F" stroke-width="0.5" stroke-miterlimit="10"/>
<path d="M349.8 167.4C349.8 167 349.8 166.8 350 166.8C350.2 166.8 350.4 167 350.7 167.3C350.9 167.5 353.8 170.4 356.6 172.9C357.9 174.1 360.6 176.7 360.9 177L360.7 169C360.7 167.9 360.5 167.6 360.1 167.4C359.8 167.3 359.4 167.3 359.1 167.3C358.8 167.3 358.8 167.3 358.8 167.1C358.8 166.9 359 166.9 359.3 166.9C360.3 166.9 361.2 166.9 361.6 166.9C362 166.9 362.5 166.9 363.5 166.9C364.5 166.9 363.9 166.9 363.9 167.1C363.9 167.3 363.8 167.3 363.6 167.3C363.4 167.3 363.3 167.3 363 167.3C362.5 167.4 362.3 167.8 362.3 168.8C362.3 172.5 362.2 176.2 362.1 179.9C362.1 180.3 362.1 180.4 361.9 180.4C361.7 180.4 361.5 180.2 361.3 180C360.1 178.9 357.7 176.6 355.7 174.8C353.6 172.9 351.5 170.7 351.1 170.3L351.3 177.7C351.3 179.1 351.6 179.5 352 179.7C352.3 179.8 352.7 179.8 353 179.8C353.3 179.8 353.3 179.8 353.3 179.9C353.3 180 353.1 180.1 352.9 180.1C351.7 180.1 350.9 180.1 350.5 180.1C350.1 180.1 349.4 180.1 348.4 180.1C347.4 180.1 348 180.1 348 179.9C348 179.7 348.1 179.8 348.3 179.8C348.5 179.8 348.9 179.8 349.2 179.8C349.7 179.7 349.8 179.1 349.8 177.6C349.8 173.9 349.9 169.5 350 167.2L349.8 167.4Z" fill="#133E2F" stroke="#133E2F" stroke-width="0.5" stroke-miterlimit="10"/>
<path d="M385.1 175.3C385.1 176.9 385.1 178.3 385.1 179.1C385.1 179.6 385.3 180 385.8 180C386.1 180 386.5 180 386.8 180C387.1 180 387.1 180 387.1 180.1C387.1 180.2 386.9 180.3 386.7 180.3C385.4 180.3 384.2 180.3 383.7 180.3C383.2 180.3 382.1 180.3 381.3 180.3C380.5 180.3 380.9 180.3 380.9 180.1C380.9 179.9 380.9 180 381.2 180C381.5 180 381.7 180 381.9 180C382.3 180 382.4 179.5 382.5 179C382.5 178.3 382.5 176.9 382.5 175.3V168.1C381.8 168.1 380.6 168.1 379.7 168.1C378.6 168.1 378.1 168.2 377.9 168.6C377.7 168.9 377.6 169.1 377.6 169.2C377.6 169.3 377.6 169.4 377.4 169.4C377.2 169.4 377.2 169.4 377.2 169.1C377.2 168.8 377.6 167.2 377.6 167.1C377.6 166.9 377.7 166.8 377.8 166.8C377.9 166.8 378.1 167 378.6 167C379.2 167 379.9 167 380.5 167H388C388.6 167 389 167 389.3 167C389.6 167 389.7 167 389.8 167C389.9 167 390 167.1 390 167.4C390 167.7 390 169 390 169.4C390 169.6 390 169.7 389.8 169.7C389.6 169.7 389.6 169.7 389.6 169.3C389.6 169.3 389.6 169.2 389.6 169.1C389.6 168.6 389 168.2 387.4 168.1C386.9 168.1 386.1 168.1 385 168.1V175.3H385.1Z" fill="#133E2F" stroke="#133E2F" stroke-width="0.5" stroke-miterlimit="10"/>
<path d="M435.3 179.2C435.3 179.7 435.3 179.7 435.1 179.8C433.9 180.4 432 180.6 430.5 180.6C425.8 180.6 421.7 178.6 421.7 173.7C421.7 168.8 423.3 168.9 425 168C426.8 167 428.5 166.9 430.1 166.9C431.7 166.9 433.1 167.1 433.5 167.2C433.9 167.2 434.6 167.4 435 167.4C435.2 167.4 435.3 167.4 435.3 167.6C435.3 167.8 435.2 168.3 435.2 170.5C435.2 172.7 435.2 170.9 435 170.9C434.8 170.9 434.8 170.9 434.8 170.7C434.8 170.3 434.6 169.7 434.2 169.2C433.6 168.6 432.1 167.8 430 167.8C427.9 167.8 427.6 167.8 426.2 168.9C425.1 169.7 424.4 171 424.4 173.2C424.4 177 427 179.8 431 179.8C435 179.8 432.2 179.8 432.6 179.6C432.9 179.5 433 179.2 433 179V177.3C433 176.4 433 175.8 433 175.2C433 174.6 432.8 174.3 432.2 174.2C432 174.2 431.7 174.2 431.5 174.2C431.3 174.2 431.2 174.2 431.2 174.1C431.2 174 431.3 173.9 431.6 173.9C432.6 173.9 433.8 173.9 434.4 173.9C435 173.9 436 173.9 436.6 173.9C437.2 173.9 437 173.9 437 174.1C437 174.3 436.9 174.2 436.8 174.2C436.7 174.2 436.5 174.2 436.3 174.2C435.8 174.2 435.6 174.6 435.6 175.2C435.6 175.7 435.6 176.4 435.6 177.3V179.2H435.3Z" fill="#133E2F" stroke="#133E2F" stroke-width="0.5" stroke-miterlimit="10"/>
<path d="M452.7 172.2C452.7 169.5 452.7 169 452.7 168.5C452.7 167.9 452.5 167.6 451.9 167.5C451.7 167.5 451.4 167.5 451.2 167.5C451 167.5 450.9 167.5 450.9 167.3C450.9 167.1 451 167.1 451.3 167.1C452.3 167.1 453.5 167.1 453.9 167.1C454.5 167.1 456 167.1 456.6 167.1C457.8 167.1 459.1 167.2 460.1 167.9C460.6 168.2 461.4 169.1 461.4 170.3C461.4 171.5 460.8 172.8 458.9 174.2C460.6 176.2 461.9 177.7 463 178.8C464.1 179.8 464.8 179.9 465.1 180C465.3 180 465.5 180 465.6 180C465.7 180 465.8 180 465.8 180.1C465.8 180.2 465.7 180.3 465.4 180.3H463.5C462.4 180.3 462 180.3 461.5 180C460.7 179.6 460 178.8 458.9 177.4C458.1 176.4 457.3 175.2 457 175C457 174.9 456.8 174.9 456.7 174.9H455.1C455.1 174.9 454.9 174.9 454.9 175V175.2C454.9 176.8 454.9 178.2 454.9 179C454.9 179.5 455.1 179.9 455.6 180C455.9 180 456.3 180 456.5 180C456.7 180 456.7 180 456.7 180.1C456.7 180.2 456.6 180.3 456.3 180.3C455.2 180.3 453.8 180.3 453.5 180.3C453.2 180.3 451.9 180.3 451.2 180.3C450.5 180.3 450.8 180.3 450.8 180.1C450.8 179.9 450.8 180 451.1 180C451.4 180 451.6 180 451.8 180C452.2 180 452.3 179.5 452.4 179C452.4 178.3 452.4 176.9 452.4 175.3V172.2H452.7ZM454.9 173.6C454.9 173.8 454.9 173.9 455.1 173.9C455.5 174 456.1 174.1 456.5 174.1C457.3 174.1 457.5 174.1 457.9 173.8C458.5 173.4 459 172.6 459 171.2C459 168.7 457.2 168 456.1 168C455 168 455.3 168 455.1 168C455 168 454.9 168.1 454.9 168.2V173.5V173.6Z" fill="#133E2F" stroke="#133E2F" stroke-width="0.5" stroke-miterlimit="10"/>
<path d="M477.5 173.7C477.5 170.7 479.6 166.8 485.4 166.8C491.2 166.8 493.1 169.3 493.1 173.4C493.1 177.5 490.1 180.6 485.2 180.6C480.3 180.6 477.5 176.8 477.5 173.7ZM490.3 174.1C490.3 170.2 487.8 167.7 484.7 167.7C481.6 167.7 480 168.8 480 173.2C480 177.6 482.2 179.8 485.8 179.8C489.4 179.8 490.2 179.2 490.2 174.1H490.3Z" fill="#133E2F" stroke="#133E2F" stroke-width="0.5" stroke-miterlimit="10"/>
<path d="M511.2 174.6C511.2 177.1 511.8 178.2 512.7 178.9C513.6 179.6 514.4 179.6 515.1 179.6C515.8 179.6 517 179.4 517.7 178.7C518.7 177.7 518.8 176.2 518.8 174.3V172.1C518.8 169.4 518.8 168.9 518.8 168.4C518.8 167.8 518.6 167.5 518 167.4C517.8 167.4 517.5 167.4 517.3 167.4C517.1 167.4 517 167.4 517 167.2C517 167 517.1 167 517.4 167C518.4 167 519.6 167 519.6 167C519.8 167 521 167 521.8 167C522.6 167 522.2 167 522.2 167.2C522.2 167.4 522.1 167.4 521.9 167.4C521.7 167.4 521.6 167.4 521.3 167.4C520.8 167.4 520.6 167.8 520.6 168.4C520.6 169 520.6 169.5 520.6 172.1V174C520.6 175.9 520.4 178 518.8 179.3C517.4 180.4 516.1 180.6 514.8 180.6C513.5 180.6 512 180.6 510.6 179.4C509.6 178.6 508.9 177.3 508.9 174.7V172.1C508.9 169.4 508.9 168.9 508.9 168.4C508.9 167.8 508.7 167.5 508.1 167.4C507.9 167.4 507.6 167.4 507.4 167.4C507.2 167.4 507.1 167.4 507.1 167.2C507.1 167 507.2 167 507.5 167C508.5 167 509.7 167 510.3 167C510.9 167 512 167 512.6 167C513.2 167 513 167 513 167.2C513 167.4 512.9 167.4 512.7 167.4C512.5 167.4 512.4 167.4 512.1 167.4C511.6 167.4 511.4 167.8 511.4 168.4C511.4 169 511.4 169.5 511.4 172.1V174.6H511.2Z" fill="#133E2F" stroke="#133E2F" stroke-width="0.5" stroke-miterlimit="10"/>
<path d="M537.8 172.2C537.8 169.5 537.8 169 537.8 168.5C537.8 167.9 537.6 167.6 537 167.5C536.8 167.5 536.5 167.5 536.3 167.5C536.1 167.5 536 167.5 536 167.3C536 167.1 536.1 167.1 536.4 167.1C537.4 167.1 538.6 167.1 539.1 167.1C539.9 167.1 541 167.1 541.9 167.1C544.3 167.1 545 167.8 545.5 168.2C545.9 168.6 546.4 169.3 546.4 170.5C546.4 172.7 544.4 174.5 541.7 174.5C539 174.5 541.4 174.5 541.3 174.5C541.3 174.5 541.1 174.5 541.1 174.3C541.1 174.1 541.2 174.1 541.6 174.1C542.7 174.1 544.1 173 544.1 171.2C544.1 169.4 544.1 169.5 543 168.6C542.3 168 541.5 167.9 541 167.9C540.5 167.9 540.4 167.9 540.3 167.9C540.3 167.9 540.1 168 540.1 168.2V175.2C540.1 176.8 540.1 178.2 540.1 179C540.1 179.5 540.3 179.9 540.8 179.9C541.1 179.9 541.5 179.9 541.8 179.9C542.1 179.9 542.1 179.9 542.1 180C542.1 180.1 541.9 180.2 541.7 180.2C540.4 180.2 539.2 180.2 538.8 180.2C538.4 180.2 537.2 180.2 536.4 180.2C535.6 180.2 536 180.2 536 180C536 179.8 536 179.9 536.3 179.9C536.6 179.9 536.8 179.9 537 179.9C537.4 179.9 537.5 179.4 537.6 178.9C537.6 178.2 537.6 176.8 537.6 175.2V172.1L537.8 172.2Z" fill="#133E2F" stroke="#133E2F" stroke-width="0.5" stroke-miterlimit="10"/>
<path d="M228.1 63L329.7 34.6L431.6 62.5L329.7 0L228.1 63Z" fill="#133E2F"/>
</g>
<defs>
<clipPath id="clip0_29_85">
<rect width="652.5" height="180.9" fill="white"/>
</clipPath>
</defs>
</svg>
