<svg width="99" height="75" viewBox="0 0 99 75" fill="none" xmlns="http://www.w3.org/2000/svg">
<path fill-rule="evenodd" clip-rule="evenodd" d="M49.5 20.3246L49.5082 20.3164H49.5V20.3246Z" fill="#FF6B35"/>
<path fill-rule="evenodd" clip-rule="evenodd" d="M29.1836 20.1392L49.5173 0L52.8575 3.2983L49.5173 6.60511L44.9117 11.1648L35.8467 20.1392L49.5173 33.6648L58.5995 24.6818H65.2712L49.5173 40.2699L29.1836 20.1392Z" fill="#003056"/>
<path fill-rule="evenodd" clip-rule="evenodd" d="M46.1855 20.1406L54.6823 11.7202L58.0225 8.42188L69.8595 20.1406H63.1877L58.0225 15.0185L55.6551 17.3622L52.8573 20.1406H46.1855Z" fill="#FF6B35"/>
<path d="M9.39127 52.7195C9.3057 52.425 9.18544 52.1647 9.03057 51.9388C8.87561 51.7087 8.68613 51.515 8.46192 51.3576C8.24181 51.1962 7.98909 51.0731 7.70376 50.9884C7.42252 50.9037 7.11069 50.8613 6.76831 50.8613C6.12835 50.8613 5.56586 51.0186 5.0808 51.3334C4.59983 51.6481 4.22482 52.1062 3.9558 52.7074C3.68678 53.3047 3.55227 54.0351 3.55227 54.8987C3.55227 55.7622 3.68474 56.4967 3.94969 57.102C4.21463 57.7073 4.58963 58.1694 5.07469 58.4881C5.55974 58.8029 6.13243 58.9603 6.79276 58.9603C7.39195 58.9603 7.90349 58.8554 8.32741 58.6456C8.75543 58.4316 9.08145 58.131 9.3057 57.7436C9.53392 57.3562 9.64807 56.8982 9.64807 56.3696L10.1861 56.4482H6.95784V54.475H12.1976V56.0367C12.1976 57.1262 11.9653 58.0624 11.5007 58.8453C11.036 59.6241 10.396 60.2254 9.58084 60.6491C8.76559 61.0688 7.83216 61.2787 6.78053 61.2787C5.60661 61.2787 4.57537 61.0224 3.68678 60.5099C2.79819 59.9933 2.10526 59.2609 1.60798 58.3127C1.11477 57.3602 0.868164 56.2304 0.868164 54.9229C0.868164 53.9181 1.01491 53.0223 1.30839 52.2354C1.60594 51.4444 2.02169 50.7746 2.55567 50.2257C3.08964 49.6769 3.71124 49.2592 4.42047 48.9727C5.12972 48.6862 5.89806 48.543 6.7255 48.543C7.43474 48.543 8.09507 48.6458 8.70645 48.8517C9.31793 49.0534 9.86002 49.3399 10.3328 49.7112C10.8097 50.0824 11.199 50.5243 11.5007 51.0368C11.8023 51.5453 11.9959 52.1062 12.0815 52.7195H9.39127ZM14.3584 61.1091V48.7124H19.2987C20.2443 48.7124 21.0514 48.8799 21.7199 49.2148C22.3924 49.5458 22.904 50.0159 23.2545 50.6252C23.6091 51.2305 23.7865 51.9428 23.7865 52.762C23.7865 53.5852 23.6071 54.2933 23.2484 54.8866C22.8897 55.4758 22.37 55.9277 21.6893 56.2425C21.0127 56.5572 20.1934 56.7146 19.2314 56.7146H15.9236V54.6082H18.8034C19.3088 54.6082 19.7287 54.5396 20.063 54.4023C20.3971 54.2651 20.6459 54.0593 20.8088 53.7849C20.976 53.5105 21.0595 53.1695 21.0595 52.762C21.0595 52.3503 20.976 52.0033 20.8088 51.7208C20.6459 51.4383 20.3952 51.2245 20.0568 51.0792C19.7226 50.9298 19.3007 50.8553 18.7912 50.8553H17.0058V61.1091H14.3584ZM21.1207 55.4677L24.2328 61.1091H21.3102L18.2654 55.4677H21.1207ZM25.8295 61.1091V48.7124H34.267V50.8734H28.4769V53.8273H33.8329V55.9883H28.4769V58.9482H34.2915V61.1091H25.8295ZM36.544 61.1091V48.7124H44.9815V50.8734H39.1914V53.8273H44.5474V55.9883H39.1914V58.9482H45.006V61.1091H36.544ZM57.7319 48.7124V61.1091H55.4453L49.9976 53.3067H49.9059V61.1091H47.2584V48.7124H49.5818L54.9867 56.5088H55.0967V48.7124H57.7319ZM64.2486 61.1091V48.7124H69.2621C70.1833 48.7124 70.9516 48.8477 71.5672 49.118C72.1827 49.3883 72.6453 49.7637 72.955 50.2438C73.2649 50.72 73.4197 51.2689 73.4197 51.8903C73.4197 52.3745 73.3219 52.8002 73.1263 53.1675C72.9306 53.5307 72.6616 53.8293 72.3192 54.0634C71.9809 54.2933 71.5937 54.4568 71.1575 54.5536V54.6747C71.6344 54.6949 72.0807 54.8281 72.4965 55.0742C72.9163 55.3204 73.2567 55.6654 73.5175 56.1093C73.7784 56.5491 73.9089 57.0738 73.9089 57.6831C73.9089 58.3409 73.7438 58.928 73.4136 59.4446C73.0875 59.957 72.6045 60.3626 71.9645 60.6612C71.3246 60.9598 70.5359 61.1091 69.5984 61.1091H64.2486ZM66.896 58.9663H69.0543C69.792 58.9663 70.3301 58.8271 70.6684 58.5486C71.0067 58.2662 71.1758 57.891 71.1758 57.4228C71.1758 57.0798 71.0923 56.7771 70.9252 56.5149C70.758 56.2525 70.5196 56.0467 70.2098 55.8974C69.9041 55.7482 69.5393 55.6735 69.1154 55.6735H66.896V58.9663ZM66.896 53.8999H68.8586C69.2214 53.8999 69.5433 53.8374 69.8246 53.7123C70.11 53.5831 70.3341 53.4015 70.4972 53.1675C70.6643 52.9335 70.7479 52.653 70.7479 52.3261C70.7479 51.8782 70.5869 51.5171 70.2648 51.2426C69.9469 50.9682 69.4944 50.831 68.9075 50.831H66.896V53.8999ZM77.962 61.1091H75.125L79.4477 48.7124H82.8594L87.1759 61.1091H84.339L81.2024 51.5453H81.1046L77.962 61.1091ZM77.7847 56.2364H84.4858V58.2823H77.7847V56.2364ZM86.8436 48.7124H89.8093L92.664 54.0513H92.7871L95.6417 48.7124H98.6074L94.0396 56.7267V61.1091H91.4114V56.7267L86.8436 48.7124Z" fill="#003056"/>
<path d="M16.4932 72.528V65.09H19.4573C20.0247 65.09 20.5089 65.1904 20.91 65.3914C21.3136 65.59 21.6205 65.872 21.8308 66.2376C22.0436 66.6009 22.1499 67.0282 22.1499 67.5197C22.1499 68.0136 22.0423 68.4385 21.8271 68.7944C21.6119 69.148 21.3001 69.4192 20.8917 69.608C20.4857 69.7969 19.9941 69.8912 19.4169 69.8912H17.4323V68.6274H19.1601C19.4634 68.6274 19.7153 68.5862 19.9159 68.5039C20.1164 68.4216 20.2656 68.2981 20.3635 68.1335C20.4637 67.9688 20.5139 67.7642 20.5139 67.5197C20.5139 67.2727 20.4637 67.0645 20.3635 66.895C20.2656 66.7256 20.1152 66.5972 19.9122 66.51C19.7117 66.4204 19.4585 66.3756 19.1528 66.3756H18.0816V72.528H16.4932ZM20.5505 69.1431L22.4178 72.528H20.6642L18.8373 69.1431H20.5505ZM24.7397 72.528H23.0375L25.6311 65.09H27.6781L30.2681 72.528H28.5659L26.684 66.7896H26.6253L24.7397 72.528ZM24.6333 69.6044H28.654V70.8319H24.6333V69.6044ZM37.6286 65.09V72.528H36.2567L32.988 67.8465H32.933V72.528H31.3445V65.09H32.7385L35.9814 69.7678H36.0476V65.09H37.6286ZM39.1132 72.528V65.09H40.7017V68.3695H40.8007L43.5044 65.09H45.4083L42.6203 68.4204L45.4414 72.528H43.5411L41.483 69.47L40.7017 70.4143V72.528H39.1132ZM47.9962 65.09V72.528H46.4077V65.09H47.9962ZM55.7593 65.09V72.528H54.3873L51.1187 67.8465H51.0637V72.528H49.4752V65.09H50.8692L54.1122 69.7678H54.1782V65.09H55.7593ZM62.2257 67.4943C62.1743 67.3175 62.1022 67.1613 62.0093 67.0257C61.9163 66.8877 61.8026 66.7715 61.6681 66.6771C61.536 66.5802 61.3844 66.5064 61.2132 66.4556C61.0444 66.4047 60.8574 66.3793 60.6519 66.3793C60.2679 66.3793 59.9305 66.4737 59.6394 66.6626C59.3509 66.8514 59.1258 67.1262 58.9644 67.487C58.803 67.8454 58.7223 68.2836 58.7223 68.8017C58.7223 69.3199 58.8018 69.7605 58.9608 70.1237C59.1197 70.4869 59.3447 70.7641 59.6358 70.9554C59.9268 71.1442 60.2704 71.2387 60.6666 71.2387C61.0261 71.2387 61.333 71.1758 61.5874 71.0498C61.8442 70.9215 62.0399 70.7411 62.1743 70.5087C62.3113 70.2763 62.3798 70.0014 62.3798 69.6843L62.7027 69.7315H60.7657V68.5475H63.9095V69.4845C63.9095 70.1382 63.7701 70.7 63.4913 71.1696C63.2126 71.6369 62.8286 71.9977 62.3395 72.2519C61.8503 72.5038 61.2902 72.6297 60.6593 72.6297C59.9549 72.6297 59.3361 72.4759 58.803 72.1684C58.2699 71.8585 57.8541 71.4191 57.5558 70.85C57.2598 70.2787 57.1118 69.6007 57.1118 68.8163C57.1118 68.2134 57.1999 67.6758 57.376 67.2037C57.5545 66.7291 57.804 66.3272 58.1244 65.998C58.4447 65.6686 58.8177 65.4181 59.2433 65.2462C59.6688 65.0743 60.1298 64.9883 60.6262 64.9883C61.0518 64.9883 61.448 65.0501 61.8148 65.1735C62.1817 65.2946 62.507 65.4665 62.7906 65.6893C63.0768 65.912 63.3103 66.1771 63.4913 66.4846C63.6723 66.7896 63.7885 67.1262 63.8399 67.4943H62.2257ZM74.467 67.694H72.8601C72.8308 67.4882 72.7709 67.3054 72.6804 67.1456C72.5899 66.9834 72.4737 66.8454 72.3319 66.7316C72.19 66.6177 72.0261 66.5306 71.8403 66.47C71.6569 66.4095 71.4575 66.3793 71.2423 66.3793C70.8535 66.3793 70.5148 66.4749 70.2261 66.6662C69.9376 66.855 69.7138 67.1311 69.5548 67.4943C69.3959 67.855 69.3164 68.2932 69.3164 68.809C69.3164 69.3392 69.3959 69.7847 69.5548 70.1455C69.7162 70.5062 69.9413 70.7786 70.2298 70.9627C70.5184 71.1467 70.8522 71.2387 71.2314 71.2387C71.4441 71.2387 71.641 71.2108 71.8219 71.1552C72.0054 71.0995 72.168 71.0184 72.3099 70.9118C72.4517 70.8029 72.5691 70.6709 72.6621 70.516C72.7574 70.361 72.8235 70.1842 72.8601 69.9857L74.467 69.993C74.4254 70.3343 74.3214 70.6636 74.1551 70.9809C73.9912 71.2956 73.7699 71.5776 73.4912 71.8271C73.2147 72.074 72.8846 72.2701 72.5006 72.4154C72.1191 72.5583 71.6875 72.6297 71.2056 72.6297C70.5355 72.6297 69.9364 72.4796 69.4081 72.1793C68.8823 71.8791 68.4665 71.4445 68.1608 70.8755C67.8575 70.3066 67.7059 69.6177 67.7059 68.809C67.7059 67.9979 67.86 67.3078 68.1681 66.7388C68.4763 66.1699 68.8946 65.7364 69.4228 65.4386C69.951 65.1384 70.5453 64.9883 71.2056 64.9883C71.641 64.9883 72.0446 65.0488 72.4163 65.1699C72.7904 65.2909 73.1218 65.4677 73.4104 65.7001C73.699 65.9301 73.9338 66.2122 74.1148 66.5463C74.2982 66.8805 74.4156 67.263 74.467 67.694ZM82.6822 68.809C82.6822 69.6201 82.5269 70.3101 82.2163 70.8791C81.9082 71.4482 81.4875 71.8827 80.9544 72.183C80.4237 72.4808 79.827 72.6297 79.1642 72.6297C78.4965 72.6297 77.8973 72.4796 77.3666 72.1793C76.8359 71.8791 76.4165 71.4445 76.1084 70.8755C75.8002 70.3066 75.6461 69.6177 75.6461 68.809C75.6461 67.9979 75.8002 67.3078 76.1084 66.7388C76.4165 66.1699 76.8359 65.7364 77.3666 65.4386C77.8973 65.1384 78.4965 64.9883 79.1642 64.9883C79.827 64.9883 80.4237 65.1384 80.9544 65.4386C81.4875 65.7364 81.9082 66.1699 82.2163 66.7388C82.5269 67.3078 82.6822 67.9979 82.6822 68.809ZM81.0718 68.809C81.0718 68.2836 80.9923 67.8405 80.8333 67.4797C80.6768 67.119 80.4555 66.8454 80.1694 66.6589C79.8832 66.4725 79.5481 66.3793 79.1642 66.3793C78.7802 66.3793 78.4451 66.4725 78.1591 66.6589C77.8729 66.8454 77.6503 67.119 77.4914 67.4797C77.3349 67.8405 77.2566 68.2836 77.2566 68.809C77.2566 69.3344 77.3349 69.7775 77.4914 70.1382C77.6503 70.499 77.8729 70.7726 78.1591 70.959C78.4451 71.1454 78.7802 71.2387 79.1642 71.2387C79.5481 71.2387 79.8832 71.1454 80.1694 70.959C80.4555 70.7726 80.6768 70.499 80.8333 70.1382C80.9923 69.7775 81.0718 69.3344 81.0718 68.809Z" fill="#003056"/>
</svg>
