<svg width="1150" height="880" viewBox="0 0 1150 880" fill="none" xmlns="http://www.w3.org/2000/svg">
<path fill-rule="evenodd" clip-rule="evenodd" d="M575 238.502L575.1 238.402H575V238.502Z" fill="#FF6B35"/>
<path fill-rule="evenodd" clip-rule="evenodd" d="M339 236.3L575.2 0L614 38.7L575.2 77.5L521.7 131L416.4 236.3L575.2 395L680.7 289.6H758.2L575.2 472.5L339 236.3Z" fill="white"/>
<path fill-rule="evenodd" clip-rule="evenodd" d="M536.5 236.301L635.2 137.501L674 98.8008L811.5 236.301H734L674 176.201L646.5 203.701L614 236.301H536.5Z" fill="#FF6B35"/>
<path d="M109.091 618.562C108.097 615.106 106.7 612.052 104.901 609.401C103.101 606.702 100.9 604.429 98.2955 602.582C95.7386 600.688 92.803 599.244 89.4886 598.25C86.2216 597.256 82.5994 596.759 78.6222 596.759C71.1884 596.759 64.6544 598.605 59.0199 602.298C53.4328 605.991 49.0767 611.366 45.9517 618.42C42.8267 625.428 41.2642 633.998 41.2642 644.131C41.2642 654.263 42.803 662.881 45.8807 669.983C48.9583 677.085 53.3144 682.507 58.9489 686.247C64.5833 689.94 71.2358 691.787 78.9062 691.787C85.8665 691.787 91.8087 690.556 96.733 688.094C101.705 685.584 105.492 682.057 108.097 677.511C110.748 672.966 112.074 667.592 112.074 661.389L118.324 662.312H80.8239V639.159H141.69V657.483C141.69 670.267 138.991 681.252 133.594 690.438C128.196 699.576 120.762 706.631 111.293 711.602C101.823 716.527 90.9801 718.989 78.7642 718.989C65.1278 718.989 53.1487 715.982 42.8267 709.969C32.5047 703.908 24.4555 695.314 18.679 684.188C12.9498 673.013 10.0852 659.756 10.0852 644.415C10.0852 632.625 11.7898 622.114 15.1989 612.881C18.6553 603.6 23.4848 595.741 29.6875 589.301C35.8902 582.862 43.1108 577.961 51.3494 574.599C59.5881 571.238 68.5133 569.557 78.125 569.557C86.3636 569.557 94.0341 570.764 101.136 573.179C108.239 575.546 114.536 578.908 120.028 583.264C125.568 587.62 130.09 592.805 133.594 598.818C137.098 604.784 139.347 611.366 140.341 618.562H109.091ZM166.79 717V571.545H224.177C235.162 571.545 244.537 573.51 252.302 577.44C260.114 581.323 266.057 586.839 270.129 593.989C274.248 601.091 276.308 609.448 276.308 619.06C276.308 628.719 274.224 637.028 270.058 643.989C265.891 650.902 259.854 656.205 251.947 659.898C244.087 663.591 234.57 665.438 223.396 665.438H184.972V640.722H218.424C224.295 640.722 229.172 639.917 233.055 638.307C236.937 636.697 239.826 634.282 241.719 631.062C243.661 627.843 244.631 623.842 244.631 619.06C244.631 614.23 243.661 610.158 241.719 606.844C239.826 603.529 236.914 601.02 232.984 599.315C229.101 597.563 224.201 596.688 218.282 596.688H197.543V717H166.79ZM245.342 650.807L281.492 717H247.543L212.174 650.807H245.342ZM300.04 717V571.545H398.052V596.901H330.793V631.56H393.009V656.915H330.793V691.645H398.336V717H300.04ZM424.501 717V571.545H522.513V596.901H455.254V631.56H517.47V656.915H455.254V691.645H522.797V717H424.501ZM670.624 571.545V717H644.062L580.781 625.452H579.715V717H548.962V571.545H575.951L638.735 663.023H640.013V571.545H670.624ZM746.322 717V571.545H804.56C815.261 571.545 824.186 573.132 831.336 576.304C838.486 579.476 843.86 583.88 847.458 589.514C851.057 595.101 852.856 601.541 852.856 608.832C852.856 614.514 851.719 619.509 849.447 623.818C847.174 628.08 844.049 631.583 840.072 634.33C836.142 637.028 831.644 638.946 826.577 640.082V641.503C832.117 641.74 837.302 643.302 842.131 646.19C847.008 649.079 850.962 653.127 853.992 658.335C857.022 663.496 858.538 669.652 858.538 676.801C858.538 684.519 856.62 691.408 852.785 697.469C848.997 703.482 843.386 708.241 835.952 711.744C828.519 715.248 819.357 717 808.467 717H746.322ZM777.075 691.858H802.146C810.716 691.858 816.966 690.224 820.896 686.957C824.826 683.643 826.79 679.24 826.79 673.747C826.79 669.723 825.82 666.171 823.879 663.094C821.937 660.016 819.167 657.601 815.569 655.849C812.018 654.098 807.78 653.222 802.856 653.222H777.075V691.858ZM777.075 632.412H799.873C804.087 632.412 807.827 631.678 811.094 630.21C814.409 628.695 817.013 626.564 818.907 623.818C820.848 621.072 821.819 617.781 821.819 613.946C821.819 608.69 819.949 604.453 816.208 601.233C812.515 598.013 807.259 596.403 800.441 596.403H777.075V632.412ZM905.619 717H872.665L922.878 571.545H962.509L1012.65 717H979.696L943.261 604.784H942.125L905.619 717ZM903.56 659.827H981.401V683.832H903.56V659.827ZM1008.79 571.545H1043.24L1076.4 634.188H1077.83L1110.99 571.545H1145.44L1092.38 665.58V717H1061.85V665.58L1008.79 571.545Z" fill="white"/>
<path d="M191.585 851V763.727H226.017C232.608 763.727 238.233 764.906 242.892 767.264C247.58 769.594 251.145 772.903 253.588 777.193C256.06 781.455 257.295 786.469 257.295 792.236C257.295 798.031 256.045 803.017 253.545 807.193C251.045 811.341 247.423 814.523 242.679 816.739C237.963 818.955 232.253 820.062 225.548 820.062H202.494V805.233H222.565C226.088 805.233 229.014 804.75 231.344 803.784C233.673 802.818 235.406 801.369 236.543 799.438C237.707 797.506 238.29 795.105 238.29 792.236C238.29 789.338 237.707 786.895 236.543 784.906C235.406 782.918 233.659 781.412 231.301 780.389C228.972 779.338 226.031 778.812 222.48 778.812H210.037V851H191.585ZM238.716 811.284L260.406 851H240.037L218.815 811.284H238.716ZM287.378 851H267.605L297.733 763.727H321.511L351.597 851H331.824L309.963 783.67H309.281L287.378 851ZM286.142 816.696H332.847V831.099H286.142V816.696ZM437.098 763.727V851H421.161L383.192 796.071H382.553V851H364.101V763.727H380.294L417.964 818.614H418.732V763.727H437.098ZM454.343 851V763.727H472.795V802.207H473.945L505.352 763.727H527.468L495.082 802.804L527.852 851H505.778L481.871 815.119L472.795 826.199V851H454.343ZM557.529 763.727V851H539.077V763.727H557.529ZM647.707 763.727V851H631.77L593.801 796.071H593.162V851H574.71V763.727H590.903L628.574 818.614H629.341V763.727H647.707ZM722.822 791.938C722.225 789.864 721.387 788.031 720.308 786.44C719.228 784.821 717.907 783.457 716.344 782.349C714.81 781.213 713.049 780.347 711.06 779.75C709.1 779.153 706.927 778.855 704.54 778.855C700.08 778.855 696.16 779.963 692.779 782.179C689.427 784.395 686.813 787.619 684.938 791.852C683.063 796.057 682.126 801.199 682.126 807.278C682.126 813.358 683.049 818.528 684.896 822.79C686.742 827.051 689.356 830.304 692.737 832.548C696.117 834.764 700.109 835.872 704.711 835.872C708.887 835.872 712.452 835.134 715.407 833.656C718.39 832.151 720.663 830.034 722.225 827.307C723.816 824.58 724.612 821.355 724.612 817.634L728.362 818.188H705.862V804.295H742.381V815.29C742.381 822.96 740.762 829.551 737.523 835.062C734.285 840.545 729.825 844.778 724.143 847.761C718.461 850.716 711.955 852.193 704.626 852.193C696.444 852.193 689.256 850.389 683.063 846.781C676.87 843.145 672.04 837.989 668.575 831.312C665.137 824.608 663.418 816.653 663.418 807.449C663.418 800.375 664.441 794.068 666.487 788.528C668.56 782.96 671.458 778.244 675.18 774.381C678.901 770.517 683.234 767.577 688.177 765.56C693.12 763.543 698.475 762.534 704.242 762.534C709.185 762.534 713.788 763.259 718.049 764.707C722.31 766.128 726.089 768.145 729.384 770.759C732.708 773.372 735.421 776.483 737.523 780.091C739.626 783.67 740.975 787.619 741.572 791.938H722.822ZM865.018 794.281H846.353C846.012 791.866 845.316 789.722 844.265 787.847C843.214 785.943 841.864 784.324 840.217 782.989C838.569 781.653 836.665 780.631 834.506 779.92C832.376 779.21 830.06 778.855 827.56 778.855C823.043 778.855 819.109 779.977 815.756 782.222C812.404 784.437 809.805 787.676 807.958 791.938C806.112 796.17 805.188 801.312 805.188 807.364C805.188 813.585 806.112 818.812 807.958 823.045C809.833 827.278 812.447 830.474 815.799 832.634C819.151 834.793 823.029 835.872 827.433 835.872C829.904 835.872 832.191 835.545 834.293 834.892C836.424 834.239 838.313 833.287 839.961 832.037C841.609 830.759 842.972 829.21 844.052 827.392C845.16 825.574 845.927 823.5 846.353 821.17L865.018 821.256C864.535 825.261 863.327 829.125 861.396 832.847C859.492 836.54 856.921 839.849 853.683 842.776C850.472 845.673 846.637 847.974 842.177 849.679C837.745 851.355 832.731 852.193 827.134 852.193C819.35 852.193 812.39 850.432 806.254 846.909C800.146 843.386 795.316 838.287 791.765 831.611C788.242 824.935 786.481 816.852 786.481 807.364C786.481 797.847 788.271 789.75 791.85 783.074C795.43 776.398 800.288 771.312 806.424 767.818C812.56 764.295 819.464 762.534 827.134 762.534C832.191 762.534 836.879 763.244 841.197 764.665C845.543 766.085 849.393 768.159 852.745 770.886C856.097 773.585 858.825 776.895 860.927 780.815C863.058 784.736 864.421 789.224 865.018 794.281ZM960.448 807.364C960.448 816.881 958.644 824.977 955.036 831.653C951.457 838.33 946.57 843.429 940.377 846.952C934.212 850.446 927.281 852.193 919.582 852.193C911.826 852.193 904.866 850.432 898.701 846.909C892.536 843.386 887.664 838.287 884.085 831.611C880.505 824.935 878.715 816.852 878.715 807.364C878.715 797.847 880.505 789.75 884.085 783.074C887.664 776.398 892.536 771.312 898.701 767.818C904.866 764.295 911.826 762.534 919.582 762.534C927.281 762.534 934.212 764.295 940.377 767.818C946.57 771.312 951.457 776.398 955.036 783.074C958.644 789.75 960.448 797.847 960.448 807.364ZM941.741 807.364C941.741 801.199 940.817 796 938.971 791.767C937.153 787.534 934.582 784.324 931.258 782.136C927.934 779.949 924.042 778.855 919.582 778.855C915.121 778.855 911.229 779.949 907.906 782.136C904.582 784.324 901.996 787.534 900.15 791.767C898.332 796 897.423 801.199 897.423 807.364C897.423 813.528 898.332 818.727 900.15 822.96C901.996 827.193 904.582 830.403 907.906 832.591C911.229 834.778 915.121 835.872 919.582 835.872C924.042 835.872 927.934 834.778 931.258 832.591C934.582 830.403 937.153 827.193 938.971 822.96C940.817 818.727 941.741 813.528 941.741 807.364Z" fill="white"/>
</svg>
