<?xml version="1.0" encoding="UTF-8"?>
<svg id="Layer_2" data-name="Layer 2" xmlns="http://www.w3.org/2000/svg" viewBox="0 0 244.6 187.39">
  <defs>
    <style>
      .cls-1 {
        fill: #104239;
      }

      .cls-2 {
        fill: #505f31;
      }
    </style>
  </defs>
  <g id="Layer_1" data-name="Layer 1">
    <g>
      <path class="cls-2" d="M122.3,1.35c44.54,0,81.82,31.7,90.46,73.73h1.38C205.47,32.3,167.59,0,122.3,0c-32.28,0-60.81,16.41-77.66,41.33.46.17.86.38,1.22.61C62.48,17.46,90.54,1.35,122.3,1.35Z"/>
      <path class="cls-2" d="M181.19,74.46c-.71.64-1.3,1.38-1.78,2.2-.14.23-.21.48-.2.75.01.37.2.65.52.76.31.1.58.04.81-.19.14-.14.26-.29.38-.45.49-.65.92-1.35,1.28-2.09.11-.23.23-.47.31-.72.11-.34-.17-.65-.54-.63-.31.02-.56.17-.78.37Z"/>
      <path class="cls-2" d="M244.54,88.38c-.1-.15-.25-.2-.43-.17-.31.05-.55.22-.81.38-1.28.8-2.52,1.54-3.79,2.36-3.95,2.54-8.04,4.87-12.36,6.65-1.71.7-3.35,1.16-5.14,1.44-.63.1-1.25.12-1.86.03-1.2-.17-1.85-.78-2.17-1.94-.19-.71-.11-1.45.07-2.14.21-.83.53-1.05,1.37-1.13.57-.06,1.17-.17,1.72-.4,2.21-.94,4.17-2.26,5.81-4.02.56-.6,1.06-1.26,1.49-1.97.45-.74.58-1.52.48-2.37-.08-.63-.39-1.11-.96-1.4-.73-.38-1.5-.46-2.29-.21-1.01.32-1.97.77-2.81,1.41-1.42,1.09-2.63,2.35-3.65,3.74-.59.02-1.17.05-1.76.1-1.28.11-2.56.28-3.85.16-.23-.02-.46-.01-.69.02-1.36.15-2.66-.11-3.93-.54-.48-.16-.87-.46-1.19-.85-.46-.56-.49-.91-.09-1.52.57-.87,1.11-1.76,1.75-2.58.6-.78,1.05-1.63,1.49-2.49.12-.24.2-.48.19-.76-.02-.98-.7-1.39-1.58-.95-.37.18-1.83,1.57-2.04,1.92-.03.06-.06.12-.09.18-.21.47-.49.9-.79,1.31-.42.58-.77,1.2-.94,1.89-.12.51-.39.93-.69,1.35-1.16,1.58-2.56,2.98-3.7,4.57-.07.09-.15.18-.24.25-.61.51-1.12,1.11-1.63,1.72-.6.72-1.24,1.41-1.98,2-.49.39-.95.82-1.37,1.29-.95,1.05-1.96,2.05-3.09,2.92-.29.22-.54.48-.78.75-.32.37-.71.63-1.16.81-.15.06-.31.14-.47.02-.17-.13-.15-.32-.09-.5.16-.57.3-1.15.48-1.71,1.28-4.11,2.92-8.09,4.77-11.98.45-.94.88-1.88,1.32-2.82.11-.23.2-.47,0-.69-.2-.22-.47-.22-.74-.16-.38.08-.65.31-.85.62-.22.35-.43.71-.63,1.06-.8,1.42-1.53,2.88-2.18,4.38-.17.38-.35.75-.54,1.12-.19.13-.38.25-.56.38-2.15,1.58-4.33,3.12-6.63,4.48-.34.2-.67.42-1,.64-1.67,1.14-3.51,1.95-5.36,2.74-.55.24-1.13.36-1.73.33-.66-.03-1.12-.35-1.41-.92-.22-.45-.31-.93-.33-1.43-.04-1.09.11-2.17.31-3.24.49-2.56,1.25-5.05,2.16-7.49.16-.43.32-.87.45-1.31.11-.41,0-.71-.27-.87-.3-.18-.71-.13-1,.15-.14.13-.26.3-.35.47-.16.29-.3.59-.43.89-.64,1.53-1.19,3.09-1.63,4.7-.67.63-1.33,1.28-1.93,1.97-1.09,1.26-2.33,2.37-3.49,3.57-1.69,1.74-3.43,3.42-5.24,5.04-.89.79-1.87,1.46-2.73,2.28-.25.24-.56.41-.87.56-.42.2-.8.45-1.18.72-.75.55-1.54,1.02-2.36,1.44-.47.24-.96.45-1.47.56-1.3.27-1.91-.08-2.32-1.35-.22-.68-.28-1.39-.24-2.1.04-.81.07-1.62.17-2.42.15-1.21.31-2.42.71-3.58.07-.21.09-.42.09-.63,0-.37.07-.72.18-1.07.94-3.11,1.73-6.26,2.76-9.33.82-2.42,1.63-4.84,2.67-7.18.13-.3.26-.61.35-.92.19-.63.42-1.25.68-1.85.39-.91.75-1.83,1.12-2.74.41-1.01.87-1.99,1.32-2.98.25-.54.67-.79,1.27-.74.11,0,.23.02.34.03.51.07,1.02.06,1.53,0,.44-.06.88-.12,1.33-.13,1.38-.05,2.77-.1,4.15-.1,1.48,0,2.96.17,4.45.18.18,0,.36.04.53.09.38.12.78.13,1.17.15,1.78.05,3.55.24,5.29.66.38.09.71.24.91.61.08.15.2.25.38.28.34.05.8-.18.96-.49.33-.6.12-1.34-.48-1.67-.14-.08-.3-.14-.45-.2-1.27-.47-2.58-.67-3.92-.69-.5,0-.98-.05-1.47-.18-.48-.13-.97-.21-1.46-.22-3.05-.06-6.09-.37-9.14-.27-1.05,0-2.11,0-3.17,0-.84,0-.95-.16-.59-.93.72-1.54,1.38-3.1,2.08-4.65.91-2.01,1.81-4.03,2.98-5.91.22-.35.42-.71.62-1.07.06-.11.13-.23.17-.35.08-.28.05-.56-.16-.79-.22-.23-.5-.21-.78-.11-.43.15-.77.43-1.07.77-.28.33-.51.69-.72,1.07-1.69,2.99-3.23,6.05-4.66,9.16-.34.75-.69,1.5-1.02,2.25-.15.33-.38.49-.74.57-1.36.32-2.75.22-4.12.43-2,.31-4.03.41-6.05.62-2.28.24-4.55.52-6.79,1-.74.16-1.48.33-2.22.5-.38.09-.72.25-.97.56-.19.24-.25.52-.13.79.13.29.42.36.71.34.13,0,.26-.04.39-.07.88-.2,1.76-.43,2.66-.54,2.16-.26,4.31-.57,6.47-.84,2.8-.35,5.61-.45,8.43-.57.15,0,.3,0,.45,0,.42.02.52.18.38.57-.03.08-.07.15-.1.22-.3.55-.53,1.13-.69,1.74-.09.35-.22.69-.35,1.03-.86,2.18-1.69,4.36-2.61,6.52-.17.41-.34.82-.42,1.26-.09.46-.2.89-.48,1.28-.17.24-.24.54-.32.82-.13.49-.26.99-.42,1.47-.67,2-1.31,4.01-1.9,6.03-.16.1-.31.19-.47.29-4.03,2.64-8.15,5.11-12.44,7.31-1.44.74-2.92,1.37-4.48,1.82-1.05.3-2.11.54-3.2.6-1.23.06-2.07-.68-2.19-1.91-.04-.36-.06-.73,0-1.09.2-1.17.39-2.35.91-3.43.43-.89.88-1.77,1.36-2.64,1.05-1.91,2.52-3.46,4.12-4.89.47-.42,1.02-.73,1.66-.82.68-.1.98.16,1.01.85,0,.16-.01.33-.03.49-.07.56-.2,1.1-.42,1.62-.25.58-.48,1.16-.71,1.74-.09.24-.17.5-.22.75-.04.2.02.39.2.52.19.14.38.08.56,0,.37-.18.61-.5.83-.83.6-.92,1.02-1.91,1.26-2.99.16-.72.2-1.44.13-2.16-.12-1.24-.95-1.95-2.2-1.92-.57.02-1.1.2-1.6.46-.97.51-1.85,1.14-2.6,1.95-.92.99-1.81,2.01-2.61,3.1-.09.12-.16.25-.25.37-1.2.74-2.37,1.45-3.55,2.21-3.95,2.54-8.04,4.87-12.36,6.65-1.71.7-3.35,1.16-5.14,1.44-.63.1-1.25.12-1.86.03-1.2-.17-1.85-.78-2.17-1.94-.19-.71-.11-1.45.07-2.14.21-.83.53-1.05,1.37-1.13.57-.06,1.17-.17,1.72-.4,2.21-.94,4.17-2.26,5.81-4.02.56-.6,1.06-1.26,1.49-1.97.45-.74.58-1.52.48-2.37-.08-.63-.39-1.11-.96-1.4-.73-.38-1.5-.46-2.29-.21-1.01.32-1.97.77-2.81,1.41-1.09.84-2.06,1.78-2.91,2.8-.14.07-.27.17-.39.28-.98.91-1.91,1.87-2.85,2.82-3.69,3.75-7.4,7.48-11.61,10.67-1.47,1.11-3.03,2.04-4.73,2.74-.41.17-.84.3-1.28.36-1.08.16-2.09-.61-2.22-1.68-.12-.95-.12-1.91-.05-2.86.17-2.18.61-4.31,1.13-6.42.5-2.04,1.37-3.95,2.1-5.91,1.32-3.54,2.85-6.99,4.29-10.47.23-.56.5-1.11.8-1.65.83-1.48,1.66-2.96,2.49-4.44.25-.45.41-.94.72-1.35.37-.51.68-1.05.99-1.6.56-1.01,1.12-2.02,1.74-2.99,1.12-1.75,2.16-3.55,3.13-5.38,1.13-2.14,2.31-4.26,3.4-6.43.35-.71.67-1.43.95-2.17.09-.24.13-.48.09-.73-.06-.37-.31-.61-.67-.61-.46,0-.89.13-1.2.48-.46.53-.95,1.06-1.34,1.65-1.44,2.13-2.79,4.32-4.02,6.58-1.82,3.36-3.46,6.82-5.28,10.18-.58,1.06-1.11,2.13-1.63,3.22-.58,1.22-1.22,2.41-1.93,3.56-1.95,3.19-3.96,6.35-5.96,9.51-.56.88-1.21,1.68-1.78,2.54-1.43,2.13-2.82,4.3-4.37,6.36-2.5,3.32-5.02,6.63-7.8,9.72-1.02,1.14-2.21,2.07-3.43,2.97-.63.47-1.22.25-1.46-.5-.19-.6-.24-1.23-.22-1.86.03-1.14.26-2.26.24-3.4,0-.05.01-.1.02-.15.23-1.23.44-2.46.72-3.68,1.2-5.17,2.68-10.27,4.46-15.27.33-.93.8-1.81,1.08-2.76.27-.92.58-1.82.92-2.71.57-1.47,1.11-2.97,1.75-4.41.48-1.08,1.03-2.14,1.48-3.23,1.02-2.49,2.22-4.89,3.45-7.28.7-1.36,1.39-2.73,2.14-4.07.29-.51.25-1.04-.11-1.5-.1-.13-.22-.19-.38-.17-.39.04-.67.24-.89.55-.53.78-1.05,1.56-1.49,2.39-2.77,5.17-5.09,10.54-7.3,15.96-1.9,4.67-3.44,9.48-4.97,14.29-.44.03-.88.05-1.33.1-1.51.14-3.02.3-4.54.26-.82-.06-1.65-.1-2.46-.2-.95-.12-1.89-.27-2.83-.45-.85-.17-1.05-.42-1.09-1.27-.02-.36,0-.73-.02-1.09-.04-1.04-.51-1.82-1.39-2.37-.14-.09-.29-.16-.43-.25q-.53-.32-.41-1.03c.01-.06.03-.13.03-.2.02-.25-.16-.44-.41-.46-.46-.03-.83.15-1.16.45-.97.9-1.92,1.81-2.73,2.86-.85,1.11-1.6,2.27-2.29,3.46-.75.61-1.52,1.2-2.22,1.86-.43.41-.9.78-1.36,1.14-1.3,1.01-2.51,2.14-3.88,3.06-.21.14-.39.31-.58.47-1.82,1.55-3.68,3.05-5.61,4.47-.34.25-.75.43-1.07.71-.95.85-2.04,1.51-3.08,2.24-2.88,2.01-5.82,3.92-8.86,5.69-2.27,1.32-4.65,2.43-7.09,3.37-1.56.61-3.22.95-4.9,1.13-2.5.26-4.64-1.33-5.12-3.79-.21-1.05-.21-2.13-.29-3.2-.08-1.15.18-2.26.38-3.38.35-2.05.82-4.07,1.44-6.05.82-2.59,1.81-5.12,2.9-7.62.58-1.31,1.34-2.53,1.85-3.88.28-.74.65-1.44,1.04-2.13,2.37-4.19,4.79-8.35,7.52-12.32,1.32-1.92,2.73-3.76,4.05-5.68.09-.13.21-.25.34-.36.36-.3.66-.64.92-1.03.17-.25.36-.47.58-.68.33-.3.61-.65.88-1,.31-.4.65-.79.97-1.18,1.44-1.73,3.12-3.21,4.7-4.8.14-.14.29-.27.45-.38.8-.56,1.52-1.21,2.28-1.82,2.04-1.67,4.34-2.86,6.89-3.54.33-.09.67-.17,1.02-.16.87.04,1.65.72,1.75,1.59.07.56.07,1.12-.03,1.68-.17.93-.45,1.82-.79,2.7-.3.77-.62,1.53-.9,2.3-.95,2.66-2.39,5.06-3.92,7.41-.05.08-.12.16-.18.24-.19.25-.41.48-.58.74-1.47,2.26-3.18,4.33-4.96,6.34-.23.26-.46.52-.67.79-.17.21-.29.44-.32.71-.07.6.44,1,1.02.8.22-.08.4-.23.58-.38,1.12-.97,2.17-2.03,3.12-3.17,2.73-3.27,4.95-6.87,6.96-10.61.63-1.18,1.01-2.47,1.56-3.68.73-1.62,1.05-3.32,1.14-5.08.04-.85-.08-1.68-.42-2.47-.23-.55-.6-.97-1.14-1.25-1.63-.87-3.29-.97-4.99-.21-.59.26-1.18.52-1.79.7-.32.09-.61.26-.87.45-.64.46-1.26.95-1.99,1.28-.1.05-.19.13-.28.21-.46.43-.97.79-1.49,1.14-.52.35-1.02.73-1.48,1.16-1.11,1.06-2.35,1.98-3.33,3.17-.11.14-.26.26-.4.37-.31.25-.58.54-.83.84-.7.81-1.39,1.63-2.15,2.39-.43.44-.83.89-1.16,1.41-.21.34-.46.64-.74.93-.82.82-1.56,1.7-2.25,2.63-.7.94-1.35,1.91-2.13,2.79-.26.3-.48.63-.69.96-1.21,1.86-2.54,3.65-3.61,5.61-.1.19-.22.36-.34.54-.76,1.16-1.57,2.28-2.13,3.56-.03.08-.08.15-.12.21-.42.61-.75,1.28-1.09,1.94-.47.89-1.01,1.74-1.32,2.7,0,.03-.03.06-.05.09-.54.83-.95,1.74-1.36,2.63-.82,1.76-1.67,3.51-2.28,5.36-.24.72-.56,1.41-.79,2.13-.53,1.63-1,3.28-1.54,4.9-.53,1.61-.66,3.29-.98,4.94-.25,1.3-.07,2.63-.15,3.94-.02,1.88.5,3.58,1.52,5.15.43.66.95,1.22,1.67,1.58,1.53.76,3.16,1.03,4.85.85,1.58-.17,3.11-.57,4.6-1.12,2.48-.92,4.84-2.09,7.16-3.34.7-.38,1.39-.75,2.11-1.09.51-.25.98-.54,1.37-.95.16-.17.35-.3.57-.38.4-.13.74-.35,1.07-.6.94-.7,1.9-1.36,2.89-1.99,1.28-.81,2.52-1.69,3.7-2.64.72-.58,1.47-1.12,2.26-1.6.2-.12.38-.26.54-.43.43-.48.94-.88,1.47-1.25.32-.23.65-.46.95-.71,1.76-1.51,3.58-2.97,5.32-4.51.44-.39.94-.72,1.36-1.15.26-.27.53-.52.79-.79-.21.5-.43,1-.62,1.51-.27.71-.46,1.44-.6,2.19-.15.82-.18,1.64-.05,2.46.22,1.46,1.24,2.17,2.68,1.93.8-.13,1.5-.48,2.13-.98,1.67-1.33,3.06-2.9,4.21-4.69.7-1.08,1.28-2.23,1.79-3.41.49-1.12.67-1.21,1.9-.97.03,0,.06.02.1.02,1.62.29,3.25.54,4.91.44,1.55-.09,3.1-.19,4.63-.42.47-.07.93-.14,1.4-.23-.29,1.24-.61,2.47-1.01,3.68-.06.17-.09.35-.11.53-.06.46-.15.91-.26,1.36-.44,1.71-.82,3.43-1.07,5.17-.18,1.23-.3,2.46-.24,3.7.04.79.09,1.58.25,2.36.31,1.5,1.77,2.36,3.22,1.92.96-.29,1.83-.77,2.56-1.46,1.68-1.59,3.28-3.26,4.75-5.04.96-1.15,1.84-2.37,2.8-3.52,2.03-2.44,3.86-5.02,5.6-7.67.82-1.24,1.64-2.47,2.47-3.71.06-.1.13-.19.2-.28.07-.08.16-.12.26-.06.08.04.12.12.1.21-.03.13-.06.26-.1.38-.56,1.69-1.1,3.39-1.58,5.1-.76,2.67-1.28,5.39-1.24,8.18,0,.51-.01,1.02,0,1.53.03,1.16.47,2.19,1.13,3.12.65.92,1.56,1.26,2.69,1.04,2.03-.4,3.87-1.25,5.63-2.33,2.56-1.57,4.79-3.55,7-5.56,1.95-1.77,3.75-3.68,5.5-5.63-.19.57-.36,1.14-.5,1.74-.18.8-.19,1.64-.03,2.46.29,1.52,1.13,2.51,2.56,3.09.67.27,1.39.37,2.08.37.83,0,1.6-.11,2.38-.29,3.29-.78,6.37-2.03,9.34-3.65,1.6-.87,3.25-1.8,4.84-2.73,1.39-.81,2.69-1.74,3.94-2.72-.55,1.15-.98,2.35-1.31,3.6-.26,1-.37,2.01-.25,3.04.17,1.58,1.13,2.7,2.66,3.07.44.11.91.11,1.37.16.87-.03,1.71-.17,2.54-.42,1.23-.37,2.44-.81,3.61-1.33,2.6-1.15,5.09-2.49,7.48-4.02,2.11-1.36,4.21-2.73,6.32-4.1-.59,2.21-1.09,4.44-1.45,6.7-.22,1.37-.41,2.74-.33,4.13.07,1.21.27,2.39.88,3.46.58,1.02,1.45,1.54,2.63,1.54q1.58,0,3.04-.64c1.82-.81,3.49-1.86,4.97-3.2.7-.63,1.37-1.28,2.16-1.81.24-.16.45-.39.67-.59,1.89-1.79,3.75-3.62,5.68-5.37.22-.2.42-.42.62-.64.85-.99,1.69-1.99,2.53-2.98-.18,1.04-.33,2.11-.4,3.21-.04.43,0,1.08.1,1.74.19,1.35.95,2.21,2.23,2.63.9.3,1.81.29,2.73.08.77-.18,1.51-.47,2.24-.77,2.23-.94,4.3-2.14,6.26-3.55,1.35-.97,2.67-1.96,4-2.95-.05.16-.12.31-.16.48-.02.09-.07.18-.11.27-.3.65-.51,1.32-.67,2.01-.14.61-.33,1.21-.63,1.76-.07.13-.16.26-.16.41-.02.74-.25,1.42-.45,2.12-.21.75-.2,1.5.09,2.23.27.66.76.97,1.47.94.21-.01.42-.04.63-.1.58-.17,1.09-.45,1.58-.79,2.61-1.81,4.76-4.1,6.85-6.46.31-.35.6-.7.95-1.01.82-.72,1.55-1.52,2.29-2.33.92-1.01,1.88-1.99,2.73-3.06.32-.4.56-.45.86.03.23.38.6.61.99.8.39.19.8.3,1.21.42,1.54.44,3.12.52,4.68.49,1.63.05,3.22-.08,4.79-.4.16-.03.33-.06.49-.1-.84,1.46-1.48,3.04-1.86,4.75-.18.8-.19,1.64-.03,2.46.29,1.52,1.13,2.51,2.56,3.09.67.27,1.39.37,2.08.37.83,0,1.6-.11,2.38-.29,3.29-.78,6.37-2.03,9.34-3.65,1.6-.87,3.25-1.8,4.84-2.73,2.28-1.33,4.33-2.95,6.31-4.67.25-.22.46-.48.67-.74.08-.1.1-.25.02-.37ZM52.12,90.46c-1.05,2.63-2.46,5.03-4.57,6.96-.34.31-.73.57-1.1.84-.13.1-.28.18-.43.24-.85.35-1.43,0-1.53-.91,0-.1,0-.2,0-.5.04-.22.09-.65.2-1.06.77-2.85,1.96-5.52,3.55-8.01.21-.33.47-.64.74-.92.21-.22.52-.21.69.05.5.77,1.2,1.29,1.95,1.78.64.42.78.83.5,1.52ZM52.97,86.78c-.04.39-.37.56-.71.37-.36-.2-.61-.49-.77-.87-.12-.29-.04-.6.22-.78.25-.17.59-.17.82.02.33.27.42.65.45,1.03,0,.09,0,.16-.01.22ZM112.91,85.85c.32-.21.7-.39,1.05-.54.22-.09.41-.12.63-.17.61.03,1.03.35.92.96-.08.46-.32.79-.58,1.13-.66.84-1.37,1.6-2.18,2.28-1.25,1.05-2.66,1.81-4.12,2.51-.24.12-.49.27-.74,0-.19-.19-.17-.42.07-.81,1.25-2.05,2.9-3.99,4.95-5.37ZM224.57,85.85c.32-.21.7-.39,1.05-.54.22-.09.41-.12.63-.17.61.03,1.03.35.92.96-.08.46-.32.79-.58,1.13-.66.84-1.37,1.6-2.18,2.28-1.25,1.05-2.66,1.81-4.12,2.51-.24.12-.49.27-.74,0-.19-.19-.17-.42.07-.81,1.25-2.05,2.9-3.99,4.95-5.37Z"/>
      <path class="cls-1" d="M121.02,45.69h2.05c1.29,0,1.72.02,1.95.02.09,0,.14-.06.14-.12v-.69c0-.06-.05-.14-.14-.14-.21,0-.66.03-1.95.03h-5.79c-1.29,0-1.72-.03-1.95-.03-.09,0-.14.08-.14.14v.69c0,.06.05.12.14.12.23,0,.66-.02,1.96-.02h2.02c.17,0,.38,0,.38.05v8.47c0,1.32-.03,1.72-.03,1.93,0,.08.06.14.12.14h.77c.06,0,.12-.06.12-.14,0-.21-.03-.61-.03-1.93v-8.47s.21-.05.37-.05Z"/>
      <path class="cls-1" d="M138.65,44.92c0-.09-.08-.14-.14-.14h-.75c-.06,0-.12.05-.12.14,0,.35.02.83.02,1.96v1.92h-7.02v-1.93c0-1.12.03-1.59.03-1.95,0-.09-.06-.14-.12-.14h-.77c-.06,0-.12.05-.12.14,0,.35.03.83.03,1.96v7.25c0,1.19-.03,1.62-.03,2.01,0,.09.06.14.12.14h.77c.06,0,.12-.05.12-.14,0-.38-.03-.81-.03-1.99v-4.44h7.02v4.43c0,1.19-.02,1.62-.02,2.01,0,.09.06.14.12.14h.75c.06,0,.14-.05.14-.14,0-.38-.03-.81-.03-1.99v-7.28c0-1.12.03-1.59.03-1.95Z"/>
      <path class="cls-1" d="M145.99,45.69h3.46c1.21,0,1.7.02,1.98.02.11,0,.14-.08.14-.14v-.67c0-.06-.03-.14-.14-.14-.28,0-.77.03-1.98.03h-4.37c-.08,0-.12.06-.12.14v11.15c0,.12.05.2.15.2h5.38c1.23,0,1.73.03,2.04.03.09,0,.14-.08.14-.14v-.67c0-.06-.05-.14-.14-.14-.31,0-.81.02-2.04.02h-4.49c-.06,0-.08-.03-.08-.11v-5.56h3.54c1.21,0,1.69.02,1.96.02.11,0,.14-.08.14-.14v-.69c0-.06-.03-.12-.14-.12-.26,0-.77.03-1.96.03h-3.54v-3.05c0-.06.02-.06.06-.06Z"/>
      <path class="cls-2" d="M213.7,106.66c-6.33,44.8-44.89,79.38-91.4,79.38s-81.73-31.63-90.43-73.58c-.38.23-.79.47-1.22.72,8.99,42.34,46.67,74.21,91.65,74.21s86.17-34.95,92.7-80.28c-.17-.05-.35-.1-.53-.16-.27-.09-.52-.19-.77-.29Z"/>
      <path class="cls-1" d="M59.4,126.07c0-1.91-1.46-3.09-3.37-3.09h-4.16c-.07,0-.11.04-.11.11v9.67c0,.05.04.11.11.11h4.79c1.38,0,2.22-1.01,2.22-2.12,0-.79-.46-1.5-1.21-1.82.96-.43,1.72-1.41,1.72-2.84ZM58.07,130.72c0,.74-.55,1.36-1.41,1.36h-3.96s-.11,0-.11-.04v-2.63h4.04c.86,0,1.43.58,1.43,1.32ZM56.03,128.62h-3.44v-4.82s.03-.05.09-.05h3.33c1.49,0,2.57.97,2.57,2.4,0,1.5-1.09,2.48-2.55,2.48Z"/>
      <path class="cls-1" d="M64.6,123.75h2.98c1.04,0,1.46.01,1.7.01.09,0,.12-.07.12-.12v-.58c0-.05-.03-.12-.12-.12-.24,0-.66.03-1.7.03h-3.75c-.07,0-.11.05-.11.12v9.59c0,.11.04.17.13.17h4.62c1.05,0,1.49.03,1.75.03.08,0,.12-.07.12-.12v-.58c0-.05-.04-.12-.12-.12-.26,0-.7.01-1.75.01h-3.86c-.05,0-.07-.03-.07-.09v-4.78h3.04c1.04,0,1.45.01,1.69.01.09,0,.12-.07.12-.12v-.59c0-.05-.03-.11-.12-.11-.22,0-.66.03-1.69.03h-3.04v-2.62c0-.05.01-.05.05-.05Z"/>
      <path class="cls-1" d="M73.82,132.74c.11-.21.28-.66.64-1.44l.16-.34h6.15l.16.34c.42.9.55,1.24.66,1.44.01.04.07.11.15.11h.72c.12,0,.13-.11.11-.17-.09-.17-.25-.46-.67-1.33l-3.94-8.24c-.07-.13-.15-.18-.24-.18s-.16.04-.22.18l-3.92,8.24c-.34.74-.57,1.15-.66,1.33-.03.07-.01.17.11.17h.65c.08,0,.13-.07.16-.11ZM77.69,124.42l2.73,5.81h-5.44l2.71-5.81Z"/>
      <path class="cls-1" d="M86.63,123.09c0-.08-.05-.12-.11-.12h-.66c-.05,0-.11.04-.11.12,0,.32.03.69.03,1.69v4.71c0,1.78,1.24,3.57,3.95,3.57,2.55,0,3.73-1.63,3.73-3.54v-4.75c0-.99.03-1.36.03-1.67,0-.08-.07-.12-.12-.12h-.64c-.05,0-.11.04-.11.12,0,.32.01.69.01,1.69v4.71c0,1.63-.95,2.8-2.9,2.8-2.09,0-3.13-1.33-3.13-2.83v-4.7c0-.99.03-1.36.03-1.67Z"/>
      <path class="cls-1" d="M101.85,123.75h1.76c1.11,0,1.47.01,1.67.01.08,0,.12-.05.12-.11v-.59c0-.05-.04-.12-.12-.12-.18,0-.57.03-1.67.03h-4.98c-1.11,0-1.48-.03-1.67-.03-.08,0-.12.07-.12.12v.59c0,.05.04.11.12.11.2,0,.57-.01,1.69-.01h1.74c.14,0,.33,0,.33.04v7.28c0,1.13-.03,1.48-.03,1.66,0,.07.05.12.11.12h.66c.05,0,.11-.05.11-.12,0-.18-.03-.53-.03-1.66v-7.28s.18-.04.32-.04Z"/>
      <path class="cls-1" d="M112.03,132.68c-.04.07-.01.17.09.17h.68c.08,0,.13-.07.16-.11.12-.24.25-.55.68-1.5l3.2-6.74c.43-.91.58-1.16.67-1.36.04-.07.01-.17-.09-.17h-.68c-.08,0-.13.07-.16.11-.09.21-.21.49-.63,1.4l-1.99,4.23-3.96-4.53c-.63-.71-.8-.95-.96-1.12-.04-.04-.09-.08-.16-.08h-.87c-.08,0-.12.09-.05.16.16.2.38.41,1.04,1.15l4.57,5.23-.82,1.71c-.45.94-.62,1.22-.72,1.46Z"/>
      <path class="cls-1" d="M126.94,132.74c.11-.21.28-.66.64-1.44l.16-.34h6.15l.16.34c.42.9.55,1.24.66,1.44.01.04.07.11.15.11h.72c.12,0,.13-.11.11-.17-.09-.17-.25-.46-.67-1.33l-3.94-8.24c-.07-.13-.15-.18-.24-.18s-.16.04-.22.18l-3.92,8.24c-.34.74-.57,1.15-.66,1.33-.03.07-.01.17.11.17h.65c.08,0,.13-.07.16-.11ZM130.81,124.42l2.73,5.81h-5.44l2.71-5.81Z"/>
      <path class="cls-1" d="M141.73,123.75h1.76c1.11,0,1.47.01,1.67.01.08,0,.12-.05.12-.11v-.59c0-.05-.04-.12-.12-.12-.18,0-.57.03-1.67.03h-4.98c-1.11,0-1.48-.03-1.67-.03-.08,0-.12.07-.12.12v.59c0,.05.04.11.12.11.2,0,.57-.01,1.69-.01h1.74c.14,0,.33,0,.33.04v7.28c0,1.13-.03,1.48-.03,1.66,0,.07.05.12.11.12h.66c.05,0,.11-.05.11-.12,0-.18-.03-.53-.03-1.66v-7.28s.18-.04.32-.04Z"/>
      <path class="cls-1" d="M149.51,123.75h2.98c1.04,0,1.46.01,1.7.01.09,0,.12-.07.12-.12v-.58c0-.05-.03-.12-.12-.12-.24,0-.66.03-1.7.03h-3.75c-.07,0-.11.05-.11.12v9.59c0,.11.04.17.13.17h4.62c1.05,0,1.49.03,1.75.03.08,0,.12-.07.12-.12v-.58c0-.05-.04-.12-.12-.12-.26,0-.7.01-1.75.01h-3.86c-.05,0-.07-.03-.07-.09v-4.78h3.04c1.04,0,1.45.01,1.69.01.09,0,.12-.07.12-.12v-.59c0-.05-.03-.11-.12-.11-.22,0-.66.03-1.69.03h-3.04v-2.62c0-.05.01-.05.05-.05Z"/>
      <path class="cls-1" d="M160.15,123.09c0-.08-.07-.12-.12-.12h-.65s-.11.04-.11.12c0,.33.03.75.03,1.7v7.94c0,.07.04.12.11.12h4.38c1.13,0,1.45.03,1.65.03.08,0,.12-.07.12-.12v-.58c0-.05-.04-.12-.12-.12-.21,0-.51.01-1.65.01h-3.62s-.05,0-.05-.04v-7.24c0-.96.03-1.37.03-1.7Z"/>
      <path class="cls-1" d="M169.28,132.73c0,.08.05.12.11.12h.66c.05,0,.11-.04.11-.12,0-.33-.03-.7-.03-1.71v-6.25c0-.96.03-1.37.03-1.67,0-.08-.05-.12-.11-.12h-.66c-.05,0-.11.04-.11.12,0,.3.03.71.03,1.69v6.23c0,1.03-.03,1.4-.03,1.73Z"/>
      <path class="cls-1" d="M176.09,123.75h2.98c1.04,0,1.46.01,1.7.01.09,0,.12-.07.12-.12v-.58c0-.05-.03-.12-.12-.12-.24,0-.66.03-1.7.03h-3.75c-.07,0-.11.05-.11.12v9.59c0,.11.04.17.13.17h4.62c1.05,0,1.49.03,1.75.03.08,0,.12-.07.12-.12v-.58c0-.05-.04-.12-.12-.12-.26,0-.7.01-1.75.01h-3.86c-.05,0-.07-.03-.07-.09v-4.78h3.04c1.04,0,1.45.01,1.69.01.09,0,.12-.07.12-.12v-.59c0-.05-.03-.11-.12-.11-.22,0-.66.03-1.69.03h-3.04v-2.62c0-.05.01-.05.05-.05Z"/>
      <path class="cls-1" d="M193.3,126.84c0-2.3-1.79-3.87-4.27-3.87h-3.04c-.08,0-.11.04-.11.11v8.12c0,1-.03,1.32-.03,1.53,0,.07.05.12.11.12h.66c.05,0,.11-.05.11-.12,0-.2-.03-.47-.03-1.46v-.29h1.76c1.62,0,1.82,2.02,3.85,2.02.3,0,.57-.03.95-.16.07-.03.12-.09.09-.18l-.13-.51c-.03-.08-.09-.09-.17-.07-.26.15-.47.17-.7.17-1.18,0-1.53-.92-2.26-1.47,1.92-.4,3.21-1.84,3.21-3.92ZM188.89,130.22h-2.19v-6.4s.03-.07.07-.07h2.24c1.99,0,3.46,1.19,3.46,3.09,0,2.03-1.53,3.37-3.58,3.37Z"/>
    </g>
  </g>
</svg>