<svg width="100" height="72" viewBox="0 0 100 72" fill="none" xmlns="http://www.w3.org/2000/svg">
<path d="M50.3053 0L37.4949 7.87544L37.5153 1.32275H28.3476V13.5022L0 30.932L4.57875 38.726L28.3476 24.6438V52.157H37.8917V42.0227C37.8714 34.4627 45.4619 30.9828 50.0102 30.9828C54.5584 30.9828 62.0269 33.5062 62.1286 42.0227V52.157H71.6728V41.6055C71.6728 35.4903 69.6988 31.9189 67.9182 29.7618C64.5808 25.8241 59.3203 21.9474 49.9898 21.9474C44.4953 21.9474 40.4253 23.9621 37.4339 26.2006L37.4542 19.2511L50.2951 11.6402L95.7977 37.159L100 28.9682L50.2951 0.0203504L50.3053 0Z" fill="white"/>
<path d="M79.0087 44.0693V52.0464C79.029 59.5352 71.4486 63.1779 66.8902 63.1779C62.3318 63.1779 54.8735 60.4815 54.7718 52.0464V44.0693H45.2276V52.0464C45.2378 59.5352 37.6574 63.1779 33.1092 63.1779C28.561 63.1779 21.0925 60.4815 20.9908 52.0464V44.0693H11.4466V52.4636C11.4466 58.5177 13.4205 62.0586 15.2012 64.1852C18.5386 68.0924 23.7991 71.9182 33.1295 71.9182C37.9627 71.9182 45.4413 69.9137 49.9997 65.2739C53.3676 68.7639 58.4551 71.9182 66.9106 71.9182C72.4051 71.9182 81.3286 69.3337 85.4698 63.2287C87.0673 60.8783 88.5528 57.4494 88.5528 54.0611V44.0591H79.0087V44.0693Z" fill="white"/>
</svg>
