<?xml version="1.0" encoding="UTF-8"?>
<svg id="Layer_2" data-name="Layer 2" xmlns="http://www.w3.org/2000/svg" xmlns:xlink="http://www.w3.org/1999/xlink" viewBox="0 0 405.32 135.52">
  <defs>
    <style>
      .cls-1 {
        fill: none;
      }

      .cls-2 {
        fill: url(#New_Gradient_Swatch_1-2);
      }

      .cls-3 {
        fill: url(#New_Gradient_Swatch_1-3);
      }

      .cls-4 {
        fill: url(#New_Gradient_Swatch_1);
      }

      .cls-5 {
        fill: #272525;
      }
    </style>
    <linearGradient id="New_Gradient_Swatch_1" data-name="New Gradient Swatch 1" x1="22.31" y1="112.8" x2="113.17" y2="21.94" gradientUnits="userSpaceOnUse">
      <stop offset="0" stop-color="#a87533"/>
      <stop offset=".15" stop-color="#cda859"/>
      <stop offset=".27" stop-color="#e5ca72"/>
      <stop offset=".33" stop-color="#efd77c"/>
      <stop offset=".37" stop-color="#f1db8b"/>
      <stop offset=".46" stop-color="#f6e4ad"/>
      <stop offset=".52" stop-color="#f9e8ba"/>
      <stop offset=".56" stop-color="#f6e3aa"/>
      <stop offset=".65" stop-color="#f1da88"/>
      <stop offset=".71" stop-color="#efd77c"/>
      <stop offset="1" stop-color="#a87533"/>
    </linearGradient>
    <linearGradient id="New_Gradient_Swatch_1-2" data-name="New Gradient Swatch 1" x1="41.78" y1="87.13" x2="93.48" y2="35.43" xlink:href="#New_Gradient_Swatch_1"/>
    <linearGradient id="New_Gradient_Swatch_1-3" data-name="New Gradient Swatch 1" x1="44.75" y1="104.78" x2="90.73" y2="58.8" xlink:href="#New_Gradient_Swatch_1"/>
  </defs>
  <g id="Large">
    <g>
      <g>
        <path class="cls-5" d="M166.52,42.98h-5.88l-9.33-31.41h5.97l6.46,23.36,6.9-23.36h5.49l6.9,23.36,6.46-23.36h5.97l-9.33,31.41h-5.88l-6.86-22.78-6.86,22.78Z"/>
        <path class="cls-5" d="M199.48,11.57h5.84v31.41h-5.84V11.57Z"/>
        <path class="cls-5" d="M225.11,17.19c-1.02-.56-2.09-.84-3.21-.84-.68,0-1.3.08-1.88.24-.58.16-1.07.4-1.48.71s-.74.68-.97,1.11c-.24.43-.35.91-.35,1.44,0,.62.17,1.16.51,1.61.34.46.8.87,1.39,1.24.59.37,1.28.72,2.06,1.06.78.34,1.63.72,2.54,1.13,1.3.56,2.49,1.12,3.58,1.68,1.09.56,2.04,1.2,2.83,1.92.8.72,1.42,1.56,1.88,2.52.46.96.69,2.13.69,3.52,0,1.18-.24,2.32-.73,3.41s-1.2,2.05-2.15,2.88c-.94.83-2.09,1.48-3.45,1.97-1.36.49-2.92.73-4.69.73-1.15,0-2.28-.13-3.38-.4-1.11-.27-2.15-.66-3.12-1.19-.97-.53-1.86-1.18-2.65-1.95-.8-.77-1.48-1.65-2.04-2.65l4.42-3.36c.74,1.33,1.69,2.36,2.85,3.1,1.16.74,2.5,1.11,4,1.11.77,0,1.47-.09,2.1-.29.63-.19,1.17-.44,1.61-.75.44-.31.78-.67,1.02-1.08s.35-.86.35-1.33c0-.68-.16-1.25-.46-1.73-.31-.47-.77-.89-1.37-1.26-.6-.37-1.33-.74-2.19-1.11s-1.81-.79-2.88-1.26c-1.09-.5-2.15-1-3.19-1.5-1.03-.5-1.95-1.1-2.74-1.79-.8-.69-1.44-1.53-1.92-2.5-.49-.97-.73-2.15-.73-3.54,0-1.3.27-2.49.8-3.58.53-1.09,1.27-2.04,2.21-2.83.94-.8,2.06-1.42,3.36-1.88,1.3-.46,2.71-.69,4.25-.69,1.03,0,2.04.11,3.01.33.97.22,1.9.57,2.79,1.04s1.7,1.05,2.43,1.75c.74.69,1.37,1.51,1.9,2.46l-4.34,3.23c-.77-1.21-1.66-2.09-2.68-2.65Z"/>
        <path class="cls-5" d="M263.16,39.16c-.93.9-1.95,1.67-3.07,2.3-1.12.63-2.34,1.14-3.65,1.5-1.31.37-2.71.55-4.18.55-2.3,0-4.45-.41-6.44-1.24-1.99-.83-3.71-1.97-5.15-3.43-1.45-1.46-2.58-3.18-3.41-5.15-.83-1.98-1.24-4.11-1.24-6.42s.4-4.44,1.22-6.41c.81-1.98,1.94-3.69,3.38-5.15,1.44-1.46,3.16-2.6,5.13-3.43,1.98-.83,4.13-1.24,6.46-1.24,1.5,0,2.92.17,4.25.51,1.33.34,2.54.82,3.65,1.44,1.11.62,2.1,1.36,2.99,2.21.88.86,1.64,1.8,2.26,2.83l-4.34,3.63c-.44-.71-.97-1.37-1.57-1.99s-1.28-1.15-2.04-1.59-1.57-.79-2.46-1.04c-.88-.25-1.81-.38-2.79-.38-1.47,0-2.83.27-4.07.82-1.24.55-2.31,1.29-3.21,2.23-.9.94-1.6,2.06-2.1,3.36-.5,1.3-.75,2.7-.75,4.2s.26,2.91.77,4.2,1.22,2.42,2.12,3.36c.9.94,1.97,1.69,3.21,2.23,1.24.55,2.58.82,4.03.82,2.01,0,3.75-.46,5.24-1.37,1.49-.91,2.75-2.17,3.78-3.76l4.38,3.45c-.68,1.06-1.48,2.04-2.41,2.94Z"/>
        <path class="cls-5" d="M290.47,12.28c1.98.83,3.69,1.97,5.15,3.43,1.46,1.46,2.6,3.18,3.43,5.15.83,1.98,1.24,4.11,1.24,6.41s-.41,4.44-1.24,6.42c-.83,1.98-1.97,3.69-3.43,5.15s-3.18,2.6-5.15,3.43c-1.98.83-4.13,1.24-6.46,1.24s-4.48-.41-6.46-1.24-3.69-1.97-5.15-3.43c-1.46-1.46-2.6-3.18-3.43-5.15-.83-1.98-1.24-4.11-1.24-6.42s.41-4.44,1.24-6.41c.83-1.98,1.97-3.69,3.43-5.15s3.18-2.6,5.15-3.43c1.98-.83,4.13-1.24,6.46-1.24s4.48.41,6.46,1.24ZM279.97,17.43c-1.25.55-2.34,1.29-3.25,2.23-.92.94-1.64,2.07-2.17,3.38-.53,1.31-.8,2.72-.8,4.22s.26,2.91.8,4.23,1.25,2.44,2.17,3.38c.91.94,2,1.69,3.25,2.23s2.6.82,4.05.82,2.79-.27,4.05-.82c1.25-.55,2.34-1.29,3.25-2.23.91-.94,1.64-2.07,2.17-3.38.53-1.31.8-2.72.8-4.23s-.27-2.91-.8-4.22c-.53-1.31-1.25-2.44-2.17-3.38-.92-.94-2-1.69-3.25-2.23-1.25-.54-2.6-.82-4.05-.82s-2.79.27-4.05.82Z"/>
        <path class="cls-5" d="M332.37,11.57v31.41h-5l-15.62-21.37v21.37h-5.84V11.57h5l15.62,21.23V11.57h5.84Z"/>
        <path class="cls-5" d="M352.16,17.19c-1.02-.56-2.09-.84-3.21-.84-.68,0-1.3.08-1.88.24-.58.16-1.07.4-1.48.71s-.74.68-.97,1.11c-.24.43-.35.91-.35,1.44,0,.62.17,1.16.51,1.61.34.46.8.87,1.39,1.24.59.37,1.28.72,2.06,1.06.78.34,1.63.72,2.54,1.13,1.3.56,2.49,1.12,3.58,1.68,1.09.56,2.04,1.2,2.83,1.92.8.72,1.42,1.56,1.88,2.52.46.96.69,2.13.69,3.52,0,1.18-.24,2.32-.73,3.41s-1.2,2.05-2.15,2.88c-.94.83-2.09,1.48-3.45,1.97-1.36.49-2.92.73-4.69.73-1.15,0-2.28-.13-3.38-.4-1.11-.27-2.15-.66-3.12-1.19-.97-.53-1.86-1.18-2.65-1.95-.8-.77-1.48-1.65-2.04-2.65l4.42-3.36c.74,1.33,1.69,2.36,2.85,3.1,1.16.74,2.5,1.11,4,1.11.77,0,1.47-.09,2.1-.29.63-.19,1.17-.44,1.61-.75.44-.31.78-.67,1.02-1.08s.35-.86.35-1.33c0-.68-.16-1.25-.46-1.73-.31-.47-.77-.89-1.37-1.26-.6-.37-1.33-.74-2.19-1.11s-1.81-.79-2.88-1.26c-1.09-.5-2.15-1-3.19-1.5-1.03-.5-1.95-1.1-2.74-1.79-.8-.69-1.44-1.53-1.92-2.5-.49-.97-.73-2.15-.73-3.54,0-1.3.27-2.49.8-3.58.53-1.09,1.27-2.04,2.21-2.83.94-.8,2.06-1.42,3.36-1.88,1.3-.46,2.71-.69,4.25-.69,1.03,0,2.04.11,3.01.33.97.22,1.9.57,2.79,1.04s1.7,1.05,2.43,1.75c.74.69,1.37,1.51,1.9,2.46l-4.34,3.23c-.77-1.21-1.66-2.09-2.68-2.65Z"/>
        <path class="cls-5" d="M365.24,11.57h5.84v31.41h-5.84V11.57Z"/>
        <path class="cls-5" d="M405.32,11.57v31.41h-5l-15.62-21.37v21.37h-5.84V11.57h5l15.62,21.23V11.57h5.84Z"/>
        <path class="cls-5" d="M155.06,62.66h5.84v12.92h14.38v-12.92h5.84v31.41h-5.84v-13.18h-14.38v13.18h-5.84v-31.41Z"/>
        <path class="cls-5" d="M209.47,63.37c1.98.83,3.69,1.97,5.15,3.43,1.46,1.46,2.6,3.18,3.43,5.15.83,1.98,1.24,4.11,1.24,6.41s-.41,4.44-1.24,6.42c-.83,1.98-1.97,3.69-3.43,5.15s-3.18,2.6-5.15,3.43c-1.98.83-4.13,1.24-6.46,1.24s-4.48-.41-6.46-1.24-3.69-1.97-5.15-3.43c-1.46-1.46-2.6-3.18-3.43-5.15-.83-1.98-1.24-4.11-1.24-6.42s.41-4.44,1.24-6.41c.83-1.98,1.97-3.69,3.43-5.15s3.18-2.6,5.15-3.43c1.98-.83,4.13-1.24,6.46-1.24s4.48.41,6.46,1.24ZM198.97,68.52c-1.25.55-2.34,1.29-3.25,2.23-.92.94-1.64,2.07-2.17,3.38-.53,1.31-.8,2.72-.8,4.22s.26,2.91.8,4.23,1.25,2.44,2.17,3.38c.91.94,2,1.69,3.25,2.23s2.6.82,4.05.82,2.79-.27,4.05-.82c1.25-.55,2.34-1.29,3.25-2.23.91-.94,1.64-2.07,2.17-3.38.53-1.31.8-2.72.8-4.23s-.27-2.91-.8-4.22c-.53-1.31-1.25-2.44-2.17-3.38-.92-.94-2-1.69-3.25-2.23-1.25-.54-2.6-.82-4.05-.82s-2.79.27-4.05.82Z"/>
        <path class="cls-5" d="M239.56,86.99l-8.8-13.67v20.75h-5.84v-31.41h5.26l10.84,17.12,10.84-17.12h5.22v31.41h-5.84v-20.75l-8.76,13.67h-2.92Z"/>
        <path class="cls-5" d="M264.86,62.66h20.17v5.13h-14.33v7.92h11.81v5.13h-11.81v8.1h14.82v5.13h-20.66v-31.41Z"/>
        <path class="cls-5" d="M303.06,68.28c-1.02-.56-2.09-.84-3.21-.84-.68,0-1.3.08-1.88.24-.58.16-1.07.4-1.48.71s-.74.68-.97,1.11c-.24.43-.35.91-.35,1.44,0,.62.17,1.16.51,1.61.34.46.8.87,1.39,1.24.59.37,1.28.72,2.06,1.06.78.34,1.63.72,2.54,1.13,1.3.56,2.49,1.12,3.58,1.68,1.09.56,2.04,1.2,2.83,1.92.8.72,1.42,1.56,1.88,2.52.46.96.69,2.13.69,3.52,0,1.18-.24,2.32-.73,3.41s-1.2,2.05-2.15,2.88c-.94.83-2.09,1.48-3.45,1.97-1.36.49-2.92.73-4.69.73-1.15,0-2.28-.13-3.38-.4-1.11-.27-2.15-.66-3.12-1.19-.97-.53-1.86-1.18-2.65-1.95-.8-.77-1.48-1.65-2.04-2.65l4.42-3.36c.74,1.33,1.69,2.36,2.85,3.1,1.16.74,2.5,1.11,4,1.11.77,0,1.47-.09,2.1-.29.63-.19,1.17-.44,1.61-.75.44-.31.78-.67,1.02-1.08s.35-.86.35-1.33c0-.68-.16-1.25-.46-1.73-.31-.47-.77-.89-1.37-1.26-.6-.37-1.33-.74-2.19-1.11s-1.81-.79-2.88-1.26c-1.09-.5-2.15-1-3.19-1.5-1.03-.5-1.95-1.1-2.74-1.79-.8-.69-1.44-1.53-1.92-2.5-.49-.97-.73-2.15-.73-3.54,0-1.3.27-2.49.8-3.58.53-1.09,1.27-2.04,2.21-2.83.94-.8,2.06-1.42,3.36-1.88,1.3-.46,2.71-.69,4.25-.69,1.03,0,2.04.11,3.01.33.97.22,1.9.57,2.79,1.04s1.7,1.05,2.43,1.75c.74.69,1.37,1.51,1.9,2.46l-4.34,3.23c-.77-1.21-1.66-2.09-2.68-2.65Z"/>
        <path class="cls-5" d="M326.97,62.66h5.84v31.41h-5.84v-31.41Z"/>
        <path class="cls-5" d="M367.05,62.66v31.41h-5l-15.62-21.37v21.37h-5.84v-31.41h5l15.62,21.23v-21.23h5.84Z"/>
        <path class="cls-5" d="M399.81,90.24c-.93.9-1.95,1.67-3.07,2.3-1.12.63-2.34,1.14-3.65,1.5-1.31.37-2.71.55-4.18.55-2.3,0-4.45-.41-6.44-1.24-1.99-.83-3.71-1.97-5.15-3.43-1.45-1.46-2.58-3.18-3.41-5.15-.83-1.98-1.24-4.11-1.24-6.42s.4-4.44,1.22-6.41c.81-1.98,1.94-3.69,3.38-5.15,1.44-1.46,3.16-2.6,5.13-3.43,1.98-.83,4.13-1.24,6.46-1.24,1.5,0,2.92.17,4.25.51,1.33.34,2.54.82,3.65,1.44,1.11.62,2.1,1.36,2.99,2.21.88.86,1.64,1.8,2.26,2.83l-4.34,3.63c-.44-.71-.97-1.37-1.57-1.99s-1.28-1.15-2.04-1.59-1.57-.79-2.46-1.04c-.88-.25-1.81-.38-2.79-.38-1.47,0-2.83.27-4.07.82-1.24.55-2.31,1.29-3.21,2.23-.9.94-1.6,2.06-2.1,3.36-.5,1.3-.75,2.7-.75,4.2s.26,2.91.77,4.2,1.22,2.42,2.12,3.36c.9.94,1.97,1.69,3.21,2.23,1.24.55,2.58.82,4.03.82,2.01,0,3.75-.46,5.24-1.37,1.49-.91,2.75-2.17,3.78-3.76l4.38,3.45c-.68,1.06-1.48,2.04-2.41,2.94Z"/>
      </g>
      <g>
        <g>
          <path class="cls-1" d="M67.75,135.52C30.38,135.52,0,105.12,0,67.75S30.38,0,67.75,0s67.77,30.38,67.77,67.75-30.4,67.77-67.77,67.77Z"/>
          <path d="M67.75,0C30.38,0,0,30.38,0,67.75s30.38,67.77,67.75,67.77,67.77-30.4,67.77-67.77S105.12,0,67.75,0Z"/>
        </g>
        <g>
          <path d="M128.19,82.16c3.95-16.11,1.36-32.82-7.27-47.05-8.63-14.22-22.25-24.23-38.37-28.17-4.86-1.19-9.85-1.8-14.81-1.8C38.99,5.14,14.14,24.64,7.32,52.57c-3.95,16.12-1.37,32.83,7.25,47.06,8.63,14.23,22.26,24.24,38.38,28.18,4.86,1.19,9.84,1.8,14.81,1.8,28.73,0,53.59-19.51,60.43-47.44Z"/>
          <path class="cls-4" d="M122.64,34.06c-8.91-14.69-22.98-25.01-39.61-29.08-5.02-1.23-10.17-1.85-15.29-1.85C38.06,3.13,12.4,23.26,5.36,52.09c-4.08,16.64-1.42,33.9,7.49,48.59,8.91,14.69,22.98,25.02,39.62,29.09,5.02,1.23,10.16,1.85,15.29,1.85,29.67,0,55.33-20.14,62.39-48.98,4.07-16.64,1.41-33.89-7.5-48.58ZM52.95,127.81c-16.12-3.94-29.75-13.95-38.38-28.18-8.63-14.23-11.2-30.94-7.25-47.06C14.14,24.64,38.99,5.14,67.74,5.14c4.97,0,9.95.6,14.81,1.8,16.11,3.94,29.74,13.94,38.37,28.17,8.63,14.23,11.21,30.94,7.27,47.05-6.85,27.93-31.7,47.44-60.43,47.44-4.96,0-9.95-.6-14.81-1.8Z"/>
        </g>
        <g>
          <path class="cls-2" d="M68.04,30.39l-12.59,7.74.02-6.44h-9.01v11.97l-27.86,17.13,4.5,7.66,23.36-13.84v27.04h9.38v-9.96c-.02-7.43,7.44-10.85,11.91-10.85s11.81,2.48,11.91,10.85v9.96h9.38v-10.37c0-6.01-1.94-9.52-3.69-11.64-3.28-3.87-8.45-7.68-17.62-7.68-5.4,0-9.4,1.98-12.34,4.18l.02-6.83,12.62-7.48,44.72,25.08,4.13-8.05-48.85-28.45Z"/>
          <path class="cls-3" d="M96.25,73.7v7.84c.02,7.36-7.43,10.94-11.91,10.94s-11.81-2.65-11.91-10.94v-7.84h-9.38v7.84c.01,7.36-7.44,10.94-11.91,10.94s-11.81-2.65-11.91-10.94v-7.84h-9.38v8.25c0,5.95,1.94,9.43,3.69,11.52,3.28,3.84,8.45,7.6,17.62,7.6,4.75,0,12.1-1.97,16.58-6.53,3.31,3.43,8.31,6.53,16.62,6.53,5.4,0,14.17-2.54,18.24-8.54,1.57-2.31,3.03-5.68,3.03-9.01v-9.83h-9.38Z"/>
        </g>
      </g>
      <g>
        <path class="cls-5" d="M159.23,115.46h-4.06l.29-1.72h10.01l-.29,1.72h-4.06l-2.08,11.79h-1.89l2.09-11.79Z"/>
        <path class="cls-5" d="M169.18,113.74l-.9,5.17c.18-.22.38-.42.6-.61.22-.19.47-.36.76-.5.28-.14.59-.25.92-.33.33-.08.7-.12,1.09-.12.54,0,1.02.09,1.44.28.43.19.78.45,1.05.79s.46.77.56,1.27c.1.5.1,1.07-.02,1.71l-1.03,5.85h-1.86l1.01-5.78c.08-.41.08-.76,0-1.06-.07-.3-.19-.55-.36-.76-.17-.2-.39-.36-.64-.46-.25-.1-.54-.15-.84-.15-.5,0-.94.1-1.32.29-.38.19-.71.43-.98.73-.27.29-.48.62-.64,1-.16.37-.27.73-.33,1.09l-.9,5.11h-1.86l2.37-13.51h1.86Z"/>
        <path class="cls-5" d="M184.38,117.69c.52.24.93.56,1.24.97s.53.88.64,1.42c.12.54.12,1.13,0,1.75-.03.18-.06.36-.12.54-.05.19-.11.35-.17.51h-7.33c-.04.46,0,.87.13,1.22.13.36.32.66.56.91.25.25.55.44.91.56.36.13.75.19,1.17.19.57,0,1.11-.11,1.6-.33.49-.22.94-.52,1.35-.89l.9,1.3c-.65.56-1.32.97-2,1.23-.68.26-1.41.39-2.19.39s-1.46-.13-2.06-.39c-.59-.26-1.08-.62-1.44-1.07-.37-.45-.63-.99-.78-1.6-.15-.61-.16-1.28-.03-1.99.13-.71.37-1.38.72-2,.35-.62.78-1.16,1.29-1.62.51-.46,1.09-.82,1.73-1.08.64-.26,1.33-.39,2.06-.39.69,0,1.29.12,1.81.35ZM181.23,119.16c-.34.11-.66.26-.95.47s-.54.45-.77.75c-.22.29-.41.62-.54,1h5.55v-.02c.04-.36,0-.68-.09-.98-.1-.29-.24-.54-.44-.75-.2-.2-.44-.36-.73-.47s-.61-.16-.97-.16-.73.05-1.07.16Z"/>
        <path class="cls-5" d="M195.06,113.74h1.89l-2.37,13.51h-1.89l2.37-13.51Z"/>
        <path class="cls-5" d="M201.91,118.33c.23-.2.48-.38.77-.53.28-.15.59-.26.94-.34.34-.08.71-.12,1.11-.12.55,0,1.04.09,1.46.28.43.19.78.45,1.05.79s.46.77.55,1.27.09,1.07-.03,1.71l-1.03,5.85h-1.86l1.01-5.78c.08-.41.08-.76,0-1.06-.07-.3-.19-.55-.35-.76-.17-.2-.38-.36-.64-.46-.26-.1-.54-.15-.85-.15-.5,0-.94.1-1.32.32-.38.21-.71.48-.99.79s-.49.67-.66,1.06c-.17.39-.28.76-.34,1.12l-.86,4.92h-1.86l1.7-9.68h1.82l-.25,1.45c.18-.25.38-.48.61-.69Z"/>
        <path class="cls-5" d="M214.61,127.15c-.2.1-.44.18-.71.24s-.57.09-.9.09c-.47,0-.88-.07-1.23-.21-.35-.14-.63-.34-.85-.6-.22-.26-.36-.58-.43-.97s-.06-.82.03-1.3l.94-5.28h-1.45l.27-1.55h1.51l.48-2.66h1.8l-.48,2.66h2.49l-.27,1.55h-2.49l-.9,5.05c-.1.55-.04.95.17,1.21.22.26.59.38,1.13.38.1,0,.26-.02.49-.05.22-.03.46-.12.72-.26l-.31,1.7Z"/>
        <path class="cls-5" d="M224.25,117.69c.52.24.93.56,1.24.97s.53.88.64,1.42c.12.54.12,1.13,0,1.75-.03.18-.06.36-.12.54-.05.19-.11.35-.17.51h-7.33c-.04.46,0,.87.13,1.22.13.36.32.66.56.91.25.25.55.44.91.56.36.13.75.19,1.17.19.57,0,1.11-.11,1.6-.33.49-.22.94-.52,1.35-.89l.9,1.3c-.65.56-1.32.97-2,1.23-.68.26-1.41.39-2.19.39s-1.46-.13-2.06-.39c-.59-.26-1.08-.62-1.44-1.07-.37-.45-.63-.99-.78-1.6-.15-.61-.16-1.28-.03-1.99.13-.71.37-1.38.72-2,.35-.62.78-1.16,1.29-1.62.51-.46,1.09-.82,1.73-1.08.64-.26,1.33-.39,2.06-.39.69,0,1.29.12,1.81.35ZM221.1,119.16c-.34.11-.66.26-.95.47s-.54.45-.77.75c-.22.29-.41.62-.54,1h5.55v-.02c.04-.36,0-.68-.09-.98-.1-.29-.24-.54-.44-.75-.2-.2-.44-.36-.73-.47s-.61-.16-.97-.16-.73.05-1.07.16Z"/>
        <path class="cls-5" d="M229.84,113.74h1.86l-1.89,10.77c-.03.18-.04.34-.04.5s.02.29.07.4c.04.12.12.2.23.27.11.06.25.1.43.1.09,0,.18,0,.29-.02.1-.01.22-.04.36-.1l-.31,1.66c-.15.06-.3.11-.45.12-.15.02-.29.03-.43.03-.32,0-.62-.04-.91-.12s-.53-.23-.74-.43-.35-.47-.43-.81c-.08-.34-.08-.76,0-1.27l1.95-11.1Z"/>
        <path class="cls-5" d="M235.28,113.74h1.86l-1.89,10.77c-.03.18-.04.34-.04.5s.02.29.07.4c.04.12.12.2.23.27.11.06.25.1.43.1.09,0,.18,0,.29-.02.1-.01.22-.04.36-.1l-.31,1.66c-.15.06-.3.11-.45.12-.15.02-.29.03-.43.03-.32,0-.62-.04-.91-.12s-.53-.23-.74-.43-.35-.47-.43-.81c-.08-.34-.08-.76,0-1.27l1.95-11.1Z"/>
        <path class="cls-5" d="M240.15,117.57h1.86l-1.7,9.68h-1.86l1.7-9.68ZM242.58,113.85c.19.22.25.5.19.83-.06.33-.23.61-.5.84s-.56.34-.88.34-.57-.11-.77-.34-.25-.51-.19-.84c.06-.33.23-.61.5-.83.27-.22.56-.33.88-.33s.57.11.77.33Z"/>
        <path class="cls-5" d="M251.81,128.62c-.33.55-.74,1.03-1.23,1.42s-1.05.71-1.68.93c-.63.22-1.3.33-2.02.33-.96,0-1.79-.18-2.49-.54-.7-.36-1.23-.86-1.59-1.48l1.45-1.17c.27.46.65.83,1.14,1.1s1.09.41,1.79.41c.46,0,.89-.07,1.29-.21.4-.14.76-.34,1.06-.61.31-.27.56-.59.77-.97.21-.38.35-.79.43-1.25l1.74.19c-.12.68-.34,1.29-.67,1.85ZM250.22,126.46c-.27.2-.56.38-.88.54-.32.15-.65.27-1,.35s-.69.12-1.02.12c-.65,0-1.23-.13-1.74-.38-.51-.25-.93-.61-1.27-1.05-.34-.45-.57-.98-.69-1.6-.12-.62-.12-1.3,0-2.04.13-.74.36-1.42.71-2.04.34-.62.76-1.15,1.25-1.61.49-.45,1.04-.8,1.64-1.05s1.22-.37,1.88-.37c.33,0,.65.04.97.12.31.08.6.2.85.33.25.14.48.31.67.5.19.19.34.39.44.61l.23-1.34h1.86l-1.63,9.2-1.74-.19.13-.76c-.17.23-.38.45-.65.65ZM249.12,125.54c.39-.16.75-.39,1.07-.69.33-.3.61-.66.84-1.07.24-.41.4-.87.49-1.37.09-.51.09-.97,0-1.39-.09-.41-.25-.77-.47-1.06-.22-.29-.5-.52-.83-.68-.33-.16-.7-.24-1.11-.24s-.79.08-1.19.24c-.4.16-.76.39-1.09.69-.33.3-.62.66-.85,1.07-.24.41-.4.87-.49,1.37-.09.5-.09.95,0,1.37.09.42.25.77.48,1.07.23.3.51.53.85.69.34.16.7.24,1.1.24s.81-.08,1.2-.24Z"/>
        <path class="cls-5" d="M263.25,117.69c.52.24.93.56,1.24.97s.53.88.64,1.42c.12.54.12,1.13,0,1.75-.03.18-.06.36-.12.54-.05.19-.11.35-.17.51h-7.33c-.04.46,0,.87.13,1.22.13.36.32.66.56.91.25.25.55.44.91.56.36.13.75.19,1.17.19.57,0,1.11-.11,1.6-.33.49-.22.94-.52,1.35-.89l.9,1.3c-.65.56-1.32.97-2,1.23-.68.26-1.41.39-2.19.39s-1.46-.13-2.06-.39c-.59-.26-1.08-.62-1.44-1.07-.37-.45-.63-.99-.78-1.6-.15-.61-.16-1.28-.03-1.99.13-.71.37-1.38.72-2,.35-.62.78-1.16,1.29-1.62.51-.46,1.09-.82,1.73-1.08.64-.26,1.33-.39,2.06-.39.69,0,1.29.12,1.81.35ZM260.11,119.16c-.34.11-.66.26-.95.47s-.54.45-.77.75c-.22.29-.41.62-.54,1h5.55v-.02c.04-.36,0-.68-.09-.98-.1-.29-.24-.54-.44-.75-.2-.2-.44-.36-.73-.47s-.61-.16-.97-.16-.73.05-1.07.16Z"/>
        <path class="cls-5" d="M270.48,118.33c.23-.2.48-.38.77-.53.28-.15.59-.26.94-.34.34-.08.71-.12,1.11-.12.55,0,1.04.09,1.46.28.43.19.78.45,1.05.79s.46.77.55,1.27.09,1.07-.03,1.71l-1.03,5.85h-1.86l1.01-5.78c.08-.41.08-.76,0-1.06-.07-.3-.19-.55-.35-.76-.17-.2-.38-.36-.64-.46-.26-.1-.54-.15-.85-.15-.5,0-.94.1-1.32.32-.38.21-.71.48-.99.79s-.49.67-.66,1.06c-.17.39-.28.76-.34,1.12l-.86,4.92h-1.86l1.7-9.68h1.82l-.25,1.45c.18-.25.38-.48.61-.69Z"/>
        <path class="cls-5" d="M283.18,127.15c-.2.1-.44.18-.71.24s-.57.09-.9.09c-.47,0-.88-.07-1.23-.21-.35-.14-.63-.34-.85-.6-.22-.26-.36-.58-.43-.97s-.06-.82.03-1.3l.94-5.28h-1.45l.27-1.55h1.51l.48-2.66h1.8l-.48,2.66h2.49l-.27,1.55h-2.49l-.9,5.05c-.1.55-.04.95.17,1.21.22.26.59.38,1.13.38.1,0,.26-.02.49-.05.22-.03.46-.12.72-.26l-.31,1.7Z"/>
        <path class="cls-5" d="M294.18,127.25h-1.95l-1.7-13.51h1.97l1.22,10.77,5.24-10.77h1.99l1.45,10.77,5.01-10.77h1.97l-6.45,13.51h-1.95l-1.53-10.68-5.28,10.68Z"/>
        <path class="cls-5" d="M315.65,125.81c-.17.23-.38.45-.65.65s-.56.38-.88.54c-.32.15-.65.27-1,.35s-.69.12-1.02.12c-.65,0-1.23-.13-1.74-.38-.51-.25-.93-.61-1.27-1.05-.34-.45-.57-.98-.69-1.6-.12-.62-.12-1.3,0-2.04.13-.74.36-1.42.71-2.04.34-.62.76-1.15,1.25-1.61.49-.45,1.04-.8,1.64-1.05s1.22-.37,1.88-.37c.33,0,.65.04.97.12.31.08.6.2.85.33.25.14.48.31.67.5.19.19.34.39.44.61l.23-1.34h1.86l-1.7,9.68h-1.78l.25-1.43ZM312.7,125.77c.41,0,.81-.08,1.2-.24.39-.16.75-.39,1.07-.69.33-.3.61-.66.84-1.07.24-.41.4-.87.49-1.37.09-.51.09-.97,0-1.39-.09-.41-.25-.77-.47-1.06-.22-.29-.5-.52-.83-.68-.33-.16-.7-.24-1.11-.24s-.79.08-1.19.24c-.4.16-.76.39-1.09.69-.33.3-.62.66-.85,1.07-.24.41-.4.87-.49,1.37-.09.5-.09.95,0,1.37.09.42.25.77.48,1.07.23.3.51.53.85.69.34.16.7.24,1.1.24Z"/>
        <path class="cls-5" d="M319.21,129.39c.23.17.45.26.67.29s.38.04.5.04c.22,0,.41-.03.59-.1s.35-.16.52-.28c.17-.12.32-.28.47-.47s.29-.42.43-.69l.59-1.07-2.33-9.55h2.08l1.53,7.33,4.02-7.33h2.01l-6.49,11.27c-.2.37-.42.71-.64,1-.22.3-.48.56-.76.77s-.59.39-.94.51c-.34.12-.74.18-1.19.18-.19,0-.4-.01-.63-.04s-.47-.1-.73-.21l.29-1.67Z"/>
        <path class="cls-5" d="M339.73,127.15c-.2.1-.44.18-.71.24s-.57.09-.9.09c-.47,0-.88-.07-1.23-.21-.35-.14-.63-.34-.85-.6-.22-.26-.36-.58-.43-.97s-.06-.82.03-1.3l.94-5.28h-1.45l.27-1.55h1.51l.48-2.66h1.8l-.48,2.66h2.49l-.27,1.55h-2.49l-.9,5.05c-.1.55-.04.95.17,1.21.22.26.59.38,1.13.38.1,0,.26-.02.49-.05.22-.03.46-.12.72-.26l-.31,1.7Z"/>
        <path class="cls-5" d="M349.59,117.73c.57.26,1.04.62,1.41,1.07.37.45.63.99.78,1.61.15.62.16,1.29.03,2-.13.71-.37,1.38-.74,2-.36.62-.81,1.15-1.34,1.61-.53.45-1.12.81-1.78,1.07-.66.26-1.34.39-2.06.39s-1.36-.13-1.92-.39c-.57-.26-1.04-.62-1.41-1.07-.37-.45-.62-.99-.77-1.61-.14-.62-.15-1.29-.02-2,.13-.71.37-1.38.73-2,.36-.62.8-1.15,1.33-1.61.53-.45,1.12-.81,1.78-1.07.66-.26,1.34-.39,2.06-.39s1.35.13,1.92.39ZM346.06,119.37c-.41.18-.78.42-1.11.72-.33.3-.6.65-.82,1.05-.22.4-.37.83-.45,1.27s-.08.87,0,1.27c.08.4.23.75.45,1.05.22.3.51.54.86.72.35.18.76.27,1.21.27s.9-.09,1.31-.27c.41-.18.78-.42,1.11-.72s.6-.65.83-1.05c.23-.4.38-.83.46-1.27.08-.45.07-.87,0-1.27-.08-.4-.24-.75-.46-1.05-.22-.3-.51-.54-.86-.72s-.76-.27-1.21-.27-.9.09-1.31.27Z"/>
        <path class="cls-5" d="M360.72,113.74h4.69c.64,0,1.2.08,1.68.25.48.17.89.4,1.21.72.32.31.54.69.67,1.13.13.44.14.93.04,1.48-.08.38-.19.74-.35,1.07-.16.33-.35.63-.56.89-.22.26-.45.49-.7.67-.25.19-.49.33-.74.43.24.08.48.2.71.37.23.17.43.39.59.65.17.26.28.57.35.92.07.35.07.75,0,1.2-.1.57-.3,1.09-.59,1.55-.29.46-.66.85-1.1,1.18-.44.33-.95.57-1.52.75-.57.17-1.19.26-1.84.26h-4.9l2.37-13.51ZM363.59,125.51c.36,0,.69-.06,1-.17.31-.12.59-.27.83-.46s.44-.42.6-.68c.16-.26.26-.54.32-.85.05-.29.04-.57-.05-.82s-.22-.48-.42-.67c-.2-.19-.45-.34-.75-.45s-.64-.16-1.02-.16h-2.81l-.75,4.27h3.04ZM364.39,119.65c.37,0,.7-.06,1-.17.3-.11.56-.27.77-.47.22-.2.4-.43.54-.7.14-.27.24-.55.29-.84.1-.55,0-1.02-.33-1.42-.33-.39-.85-.59-1.58-.59h-2.75l-.75,4.19h2.81Z"/>
        <path class="cls-5" d="M376.64,126.48c-.23.2-.49.38-.77.53s-.59.26-.93.34-.71.12-1.12.12c-.55,0-1.04-.09-1.46-.28s-.77-.45-1.04-.79c-.27-.34-.45-.77-.56-1.27-.1-.5-.1-1.07.02-1.71l1.03-5.85h1.86l-1.01,5.78c-.08.4-.08.75,0,1.05s.19.56.36.77c.17.2.39.36.65.46.26.1.55.15.85.15.5,0,.94-.11,1.32-.32.38-.21.71-.47.99-.79.27-.32.49-.67.65-1.06.16-.39.27-.76.33-1.12l.86-4.92h1.86l-1.7,9.68h-1.82l.25-1.45c-.18.26-.38.49-.61.69Z"/>
        <path class="cls-5" d="M383.7,117.57h1.86l-1.7,9.68h-1.86l1.7-9.68ZM386.13,113.85c.19.22.25.5.19.83-.06.33-.23.61-.5.84s-.56.34-.88.34-.57-.11-.77-.34-.25-.51-.19-.84c.06-.33.23-.61.5-.83.27-.22.56-.33.88-.33s.57.11.77.33Z"/>
        <path class="cls-5" d="M389.28,113.74h1.86l-1.89,10.77c-.03.18-.04.34-.04.5s.02.29.07.4c.04.12.12.2.23.27.11.06.25.1.43.1.09,0,.18,0,.29-.02.1-.01.22-.04.36-.1l-.31,1.66c-.15.06-.3.11-.45.12-.15.02-.29.03-.43.03-.32,0-.62-.04-.91-.12s-.53-.23-.74-.43-.35-.47-.43-.81c-.08-.34-.08-.76,0-1.27l1.95-11.1Z"/>
        <path class="cls-5" d="M399.04,126.46c-.27.2-.56.38-.88.54-.32.15-.65.27-1,.35s-.69.12-1.02.12c-.65,0-1.23-.13-1.74-.38-.51-.25-.93-.61-1.27-1.05-.34-.45-.57-.98-.69-1.6-.12-.62-.12-1.3,0-2.04.13-.74.36-1.42.71-2.04.34-.62.76-1.15,1.25-1.61.49-.45,1.04-.8,1.64-1.05s1.22-.37,1.88-.37c.33,0,.65.04.97.12.31.08.6.2.85.33.25.14.48.31.67.5.19.19.34.39.44.61l.9-5.17h1.86l-2.37,13.51h-1.78l.25-1.43c-.17.23-.38.45-.65.65ZM397.94,125.54c.39-.16.75-.39,1.07-.69.33-.3.61-.66.84-1.07.24-.41.4-.87.49-1.37.09-.51.09-.97,0-1.39-.09-.41-.25-.77-.47-1.06-.22-.29-.5-.52-.83-.68-.33-.16-.7-.24-1.11-.24s-.79.08-1.19.24c-.4.16-.76.39-1.09.69-.33.3-.62.66-.85,1.07-.24.41-.4.87-.49,1.37-.09.5-.09.95,0,1.37.09.42.25.77.48,1.07.23.3.51.53.85.69.34.16.7.24,1.1.24s.81-.08,1.2-.24Z"/>
      </g>
    </g>
  </g>
</svg>