<svg width="75" height="75" viewBox="0 0 75 75" fill="none" xmlns="http://www.w3.org/2000/svg">
<path d="M37.442 0C16.7895 0 0 16.813 0 37.4945C0 58.1759 16.7895 75 37.442 75C58.0945 75 74.8951 58.1759 74.8951 37.4945C74.8951 16.813 58.0945 0 37.442 0Z" fill="black"/>
<path d="M70.8441 45.4693C73.0271 36.5537 71.5957 27.3059 66.8264 19.4307C62.057 11.561 54.5299 6.02126 45.6212 3.84077C42.9353 3.18219 40.1776 2.8446 37.4364 2.8446C21.5478 2.8446 7.81442 13.6364 4.04534 29.0935C1.86238 38.0147 3.28821 47.2624 8.05205 55.1376C12.8214 63.0128 20.354 68.5526 29.2628 70.7331C31.9486 71.3917 34.7008 71.7293 37.4475 71.7293C53.3251 71.7293 67.064 60.932 70.8441 45.4748V45.4693Z" fill="black"/>
<path d="M67.7769 18.8496C62.8528 10.7198 55.0771 5.00851 45.8865 2.75607C43.1122 2.07536 40.266 1.73224 37.4365 1.73224C21.0338 1.73224 6.85283 12.8727 2.96218 28.8279C0.707369 38.0368 2.17742 47.5889 7.10153 55.7187C12.0256 63.8485 19.8014 69.5654 28.9975 71.8178C31.7718 72.4985 34.6124 72.8417 37.4475 72.8417C53.8446 72.8417 68.0256 61.6957 71.9273 45.735C74.1766 36.526 72.7066 26.9794 67.7825 18.8496H67.7769ZM29.2628 70.7331C20.3541 68.5526 12.8215 63.0129 8.05208 55.1376C3.28272 47.2624 1.86241 38.0147 4.04537 29.0935C7.81445 13.6364 21.5478 2.84462 37.4365 2.84462C40.1831 2.84462 42.9353 3.17667 45.6212 3.84078C54.5244 6.02127 62.057 11.5555 66.8264 19.4307C71.5958 27.306 73.0216 36.5537 70.8442 45.4693C67.0585 60.9265 53.3252 71.7238 37.4475 71.7238C34.7064 71.7238 31.9487 71.3917 29.2628 70.7276V70.7331Z" fill="url(#paint0_linear_1424_22)"/>
<path d="M37.6023 16.8185L30.6444 21.102L30.6555 17.538H25.6761V24.1625L10.2793 33.6426L12.7662 37.8819L25.6761 30.2225V45.187H30.86V39.6749C30.8489 35.563 34.9717 33.6703 37.442 33.6703C39.9124 33.6703 43.9688 35.0428 44.0241 39.6749V45.187H49.2079V39.448C49.2079 36.122 48.1358 34.1794 47.1687 33.0062C45.356 30.8644 42.4988 28.7559 37.431 28.7559C34.4467 28.7559 32.2361 29.8517 30.6113 31.0692L30.6223 27.2893L37.5968 23.1497L62.3113 37.0296L64.5937 32.5745L37.5968 16.8296L37.6023 16.8185Z" fill="url(#paint1_linear_1424_22)"/>
<path d="M53.1925 40.7873V45.1262C53.2036 49.1994 49.0863 51.1806 46.6105 51.1806C44.1346 51.1806 40.0837 49.7141 40.0284 45.1262V40.7873H34.8446V45.1262C34.8501 49.1994 30.7328 51.1806 28.2625 51.1806C25.7922 51.1806 21.7357 49.7141 21.6804 45.1262V40.7873H16.4966V45.3531C16.4966 48.6459 17.5687 50.5719 18.5359 51.7285C20.3486 53.8537 23.2057 55.9345 28.2735 55.9345C30.8986 55.9345 34.9606 54.8443 37.4365 52.3207C39.2658 54.2189 42.029 55.9345 46.6215 55.9345C49.6058 55.9345 54.4526 54.5288 56.7019 51.2083C57.5695 49.9299 58.3764 48.0649 58.3764 46.222V40.7818H53.1925V40.7873Z" fill="url(#paint2_linear_1424_22)"/>
<defs>
<linearGradient id="paint0_linear_1424_22" x1="12.3296" y1="62.4262" x2="62.6136" y2="12.2125" gradientUnits="userSpaceOnUse">
<stop stop-color="#A87533"/>
<stop offset="0.15" stop-color="#CDA859"/>
<stop offset="0.27" stop-color="#E5CA72"/>
<stop offset="0.33" stop-color="#EFD77C"/>
<stop offset="0.37" stop-color="#F1DB8B"/>
<stop offset="0.46" stop-color="#F6E4AD"/>
<stop offset="0.52" stop-color="#F9E8BA"/>
<stop offset="0.56" stop-color="#F6E3AA"/>
<stop offset="0.65" stop-color="#F1DA88"/>
<stop offset="0.71" stop-color="#EFD77C"/>
<stop offset="1" stop-color="#A87533"/>
</linearGradient>
<linearGradient id="paint1_linear_1424_22" x1="23.0897" y1="48.2198" x2="51.7017" y2="19.6478" gradientUnits="userSpaceOnUse">
<stop stop-color="#A87533"/>
<stop offset="0.15" stop-color="#CDA859"/>
<stop offset="0.27" stop-color="#E5CA72"/>
<stop offset="0.33" stop-color="#EFD77C"/>
<stop offset="0.37" stop-color="#F1DB8B"/>
<stop offset="0.46" stop-color="#F6E4AD"/>
<stop offset="0.52" stop-color="#F9E8BA"/>
<stop offset="0.56" stop-color="#F6E3AA"/>
<stop offset="0.65" stop-color="#F1DA88"/>
<stop offset="0.71" stop-color="#EFD77C"/>
<stop offset="1" stop-color="#A87533"/>
</linearGradient>
<linearGradient id="paint2_linear_1424_22" x1="24.7311" y1="57.9877" x2="50.1775" y2="32.5769" gradientUnits="userSpaceOnUse">
<stop stop-color="#A87533"/>
<stop offset="0.15" stop-color="#CDA859"/>
<stop offset="0.27" stop-color="#E5CA72"/>
<stop offset="0.33" stop-color="#EFD77C"/>
<stop offset="0.37" stop-color="#F1DB8B"/>
<stop offset="0.46" stop-color="#F6E4AD"/>
<stop offset="0.52" stop-color="#F9E8BA"/>
<stop offset="0.56" stop-color="#F6E3AA"/>
<stop offset="0.65" stop-color="#F1DA88"/>
<stop offset="0.71" stop-color="#EFD77C"/>
<stop offset="1" stop-color="#A87533"/>
</linearGradient>
</defs>
</svg>
