<?xml version="1.0" encoding="UTF-8"?>
<svg id="Layer_3" data-name="Layer 3" xmlns="http://www.w3.org/2000/svg" viewBox="0 0 401.79 134.96">
  <defs>
    <style>
      .cls-1 {
        fill: #fff;
      }
    </style>
  </defs>
  <g id="Large">
    <g>
      <g id="WI_Homes_Logo-1C_Rev" data-name="WI Homes Logo-1C Rev">
        <g>
          <path class="cls-1" d="M67.09,0l-17.09,10.51.03-8.74h-12.23v16.24L0,41.25l6.11,10.4,31.7-18.78v36.69h12.73v-13.51c-.02-10.08,10.09-14.73,16.16-14.73s16.03,3.36,16.16,14.73v13.51h12.72v-14.08c0-8.16-2.63-12.93-5-15.8-4.46-5.26-11.46-10.42-23.91-10.42-7.32,0-12.76,2.69-16.74,5.67l.03-9.27,17.13-10.15,60.69,34.03,5.6-10.93L67.09,0Z"/>
          <path class="cls-1" d="M105.37,58.77v10.63c.02,9.98-10.09,14.84-16.16,14.84s-16.02-3.59-16.16-14.84v-10.63h-12.73v10.63c.02,9.98-10.09,14.84-16.16,14.84s-16.03-3.59-16.16-14.84v-10.63h-12.72v11.19c0,8.07,2.63,12.79,5,15.64,4.46,5.2,11.46,10.32,23.91,10.32,6.44,0,16.42-2.67,22.49-8.86,4.49,4.66,11.28,8.86,22.55,8.86,7.33,0,19.23-3.44,24.76-11.59,2.12-3.13,4.11-7.71,4.11-12.22v-13.34h-12.73Z"/>
          <polygon class="cls-1" points="163 38.77 157.11 38.77 147.78 7.36 153.75 7.36 160.21 30.72 167.11 7.36 172.6 7.36 179.5 30.72 185.96 7.36 191.93 7.36 182.59 38.77 176.71 38.77 169.85 15.99 163 38.77"/>
          <rect class="cls-1" x="195.95" y="7.36" width="5.84" height="31.41"/>
          <path class="cls-1" d="M221.59,12.98c-1.02-.56-2.09-.84-3.21-.84-.68,0-1.3.08-1.88.24-.57.16-1.07.4-1.48.71-.41.31-.74.68-.97,1.11-.24.43-.35.91-.35,1.44,0,.62.17,1.16.51,1.61.34.46.8.87,1.39,1.24.59.37,1.28.72,2.06,1.06.78.34,1.63.72,2.54,1.13,1.3.56,2.49,1.12,3.58,1.68,1.09.56,2.04,1.2,2.83,1.92.8.72,1.42,1.56,1.88,2.52.46.96.69,2.13.69,3.52,0,1.18-.24,2.31-.73,3.41-.49,1.09-1.2,2.05-2.14,2.87-.94.83-2.09,1.48-3.45,1.97-1.36.49-2.92.73-4.69.73-1.15,0-2.28-.13-3.38-.4-1.11-.27-2.15-.66-3.12-1.19s-1.86-1.18-2.65-1.95c-.8-.77-1.48-1.65-2.03-2.65l4.42-3.36c.74,1.33,1.69,2.36,2.85,3.1,1.16.74,2.5,1.11,4,1.11.77,0,1.47-.1,2.1-.29.63-.19,1.17-.44,1.61-.75.44-.31.78-.67,1.02-1.08.24-.41.35-.86.35-1.33,0-.68-.15-1.25-.46-1.73-.31-.47-.77-.89-1.37-1.26-.6-.37-1.34-.74-2.19-1.1-.86-.37-1.81-.79-2.87-1.26-1.09-.5-2.15-1-3.19-1.5-1.03-.5-1.95-1.1-2.74-1.79-.8-.69-1.44-1.53-1.92-2.5-.49-.97-.73-2.15-.73-3.54,0-1.3.26-2.49.8-3.58.53-1.09,1.27-2.04,2.21-2.83.94-.8,2.06-1.42,3.36-1.88,1.3-.46,2.71-.69,4.25-.69,1.03,0,2.04.11,3.01.33.97.22,1.9.57,2.79,1.04.88.47,1.69,1.05,2.43,1.75.74.69,1.37,1.51,1.9,2.45l-4.34,3.23c-.77-1.21-1.66-2.09-2.68-2.65"/>
          <path class="cls-1" d="M259.63,34.95c-.93.9-1.95,1.67-3.07,2.3-1.12.64-2.34,1.14-3.65,1.5-1.31.37-2.71.55-4.18.55-2.3,0-4.45-.41-6.44-1.24-1.99-.82-3.71-1.97-5.15-3.43-1.45-1.46-2.58-3.18-3.41-5.15-.83-1.98-1.24-4.11-1.24-6.41s.4-4.44,1.22-6.41c.81-1.98,1.94-3.69,3.38-5.15,1.44-1.46,3.15-2.6,5.13-3.43,1.97-.83,4.13-1.24,6.46-1.24,1.5,0,2.92.17,4.25.51,1.33.34,2.54.82,3.65,1.44,1.11.62,2.1,1.36,2.99,2.21.88.86,1.64,1.8,2.26,2.83l-4.34,3.63c-.44-.71-.96-1.37-1.57-1.99-.6-.62-1.28-1.15-2.04-1.59-.75-.44-1.57-.79-2.45-1.04-.89-.25-1.81-.38-2.79-.38-1.48,0-2.83.27-4.07.82-1.24.55-2.31,1.29-3.21,2.23-.9.94-1.6,2.06-2.1,3.36-.5,1.3-.75,2.7-.75,4.2s.26,2.9.77,4.2c.52,1.3,1.22,2.42,2.12,3.36.9.94,1.97,1.69,3.21,2.23,1.24.55,2.58.82,4.03.82,2.01,0,3.75-.46,5.24-1.37,1.49-.91,2.75-2.17,3.78-3.76l4.38,3.45c-.68,1.06-1.48,2.04-2.41,2.94"/>
          <path class="cls-1" d="M286.95,8.07c1.98.82,3.69,1.97,5.15,3.43,1.46,1.46,2.6,3.18,3.43,5.15.83,1.98,1.24,4.11,1.24,6.41s-.41,4.44-1.24,6.41c-.83,1.98-1.97,3.69-3.43,5.15-1.46,1.46-3.18,2.6-5.15,3.43-1.98.82-4.13,1.24-6.46,1.24s-4.48-.41-6.46-1.24c-1.98-.82-3.69-1.97-5.15-3.43-1.46-1.46-2.6-3.18-3.43-5.15-.83-1.98-1.24-4.11-1.24-6.41s.41-4.44,1.24-6.41c.83-1.98,1.97-3.69,3.43-5.15,1.46-1.46,3.18-2.6,5.15-3.43,1.98-.83,4.13-1.24,6.46-1.24s4.48.41,6.46,1.24M276.44,13.23c-1.25.55-2.34,1.29-3.25,2.23-.91.94-1.64,2.07-2.17,3.38-.53,1.31-.8,2.72-.8,4.22s.26,2.91.8,4.22c.53,1.31,1.25,2.44,2.17,3.38.91.94,2,1.69,3.25,2.24,1.25.55,2.6.82,4.05.82s2.79-.27,4.05-.82c1.25-.55,2.34-1.29,3.25-2.24.91-.94,1.64-2.07,2.17-3.38.53-1.31.8-2.72.8-4.22s-.27-2.91-.8-4.22c-.53-1.31-1.25-2.44-2.17-3.38-.91-.94-2-1.69-3.25-2.23-1.25-.54-2.6-.82-4.05-.82s-2.79.27-4.05.82"/>
          <polygon class="cls-1" points="328.84 7.36 328.84 38.77 323.85 38.77 308.23 17.41 308.23 38.77 302.39 38.77 302.39 7.36 307.39 7.36 323 28.6 323 7.36 328.84 7.36"/>
          <path class="cls-1" d="M348.64,12.98c-1.02-.56-2.09-.84-3.21-.84-.68,0-1.3.08-1.88.24-.57.16-1.07.4-1.48.71-.41.31-.74.68-.97,1.11-.24.43-.35.91-.35,1.44,0,.62.17,1.16.51,1.61.34.46.8.87,1.39,1.24.59.37,1.27.72,2.06,1.06.78.34,1.63.72,2.54,1.13,1.3.56,2.49,1.12,3.58,1.68,1.09.56,2.04,1.2,2.83,1.92.8.72,1.42,1.56,1.88,2.52.46.96.69,2.13.69,3.52,0,1.18-.24,2.31-.73,3.41-.49,1.09-1.2,2.05-2.14,2.87-.94.83-2.09,1.48-3.45,1.97-1.36.49-2.92.73-4.69.73-1.15,0-2.28-.13-3.38-.4-1.11-.27-2.15-.66-3.12-1.19-.97-.53-1.86-1.18-2.65-1.95-.8-.77-1.48-1.65-2.04-2.65l4.42-3.36c.74,1.33,1.69,2.36,2.85,3.1,1.16.74,2.5,1.11,4,1.11.77,0,1.47-.1,2.1-.29.63-.19,1.17-.44,1.61-.75.44-.31.78-.67,1.02-1.08.24-.41.35-.86.35-1.33,0-.68-.15-1.25-.46-1.73-.31-.47-.77-.89-1.37-1.26-.6-.37-1.33-.74-2.19-1.1-.86-.37-1.81-.79-2.87-1.26-1.09-.5-2.15-1-3.19-1.5-1.03-.5-1.95-1.1-2.74-1.79-.8-.69-1.44-1.53-1.93-2.5-.49-.97-.73-2.15-.73-3.54,0-1.3.26-2.49.8-3.58.53-1.09,1.27-2.04,2.21-2.83.94-.8,2.06-1.42,3.36-1.88,1.3-.46,2.71-.69,4.25-.69,1.03,0,2.04.11,3.01.33.97.22,1.9.57,2.79,1.04.89.47,1.7,1.05,2.43,1.75.74.69,1.37,1.51,1.9,2.45l-4.34,3.23c-.77-1.21-1.66-2.09-2.68-2.65"/>
          <rect class="cls-1" x="361.71" y="7.36" width="5.84" height="31.41"/>
          <polygon class="cls-1" points="401.79 7.36 401.79 38.77 396.79 38.77 381.18 17.41 381.18 38.77 375.34 38.77 375.34 7.36 380.34 7.36 395.95 28.6 395.95 7.36 401.79 7.36"/>
          <polygon class="cls-1" points="151.54 58.45 157.38 58.45 157.38 71.37 171.76 71.37 171.76 58.45 177.59 58.45 177.59 89.86 171.76 89.86 171.76 76.68 157.38 76.68 157.38 89.86 151.54 89.86 151.54 58.45"/>
          <path class="cls-1" d="M205.95,59.16c1.97.82,3.69,1.97,5.15,3.43,1.46,1.46,2.6,3.18,3.43,5.15.82,1.98,1.24,4.11,1.24,6.41s-.41,4.44-1.24,6.41c-.83,1.98-1.97,3.69-3.43,5.15-1.46,1.46-3.18,2.6-5.15,3.43-1.98.82-4.13,1.24-6.46,1.24s-4.48-.41-6.46-1.24c-1.98-.82-3.69-1.97-5.15-3.43-1.46-1.46-2.6-3.18-3.43-5.15-.83-1.98-1.24-4.11-1.24-6.41s.41-4.44,1.24-6.41c.82-1.98,1.97-3.69,3.43-5.15,1.46-1.46,3.18-2.6,5.15-3.43,1.97-.83,4.13-1.24,6.46-1.24s4.48.41,6.46,1.24M195.44,64.31c-1.25.55-2.34,1.29-3.25,2.23-.91.94-1.64,2.07-2.17,3.38-.53,1.31-.8,2.72-.8,4.22s.26,2.91.8,4.22c.53,1.31,1.25,2.44,2.17,3.38.91.94,2,1.69,3.25,2.23,1.25.54,2.6.82,4.05.82s2.79-.27,4.05-.82c1.25-.55,2.34-1.29,3.25-2.23.91-.94,1.64-2.07,2.17-3.38.53-1.31.8-2.72.8-4.22s-.27-2.91-.8-4.22c-.53-1.31-1.25-2.44-2.17-3.38-.91-.94-2-1.69-3.25-2.23-1.25-.54-2.6-.82-4.05-.82s-2.79.27-4.05.82"/>
          <polygon class="cls-1" points="236.03 82.78 227.23 69.11 227.23 89.86 221.39 89.86 221.39 58.45 226.65 58.45 237.49 75.57 248.33 58.45 253.55 58.45 253.55 89.86 247.71 89.86 247.71 69.11 238.95 82.78 236.03 82.78"/>
          <polygon class="cls-1" points="260.34 58.45 280.51 58.45 280.51 63.58 266.18 63.58 266.18 71.5 277.99 71.5 277.99 76.63 266.18 76.63 266.18 84.73 281 84.73 281 89.86 260.34 89.86 260.34 58.45"/>
          <path class="cls-1" d="M300.54,64.07c-1.02-.56-2.09-.84-3.21-.84-.68,0-1.3.08-1.88.24-.57.16-1.07.4-1.48.71-.41.31-.74.68-.97,1.11-.24.43-.35.91-.35,1.44,0,.62.17,1.16.51,1.61.34.46.8.87,1.39,1.24.59.37,1.27.72,2.06,1.06.78.34,1.63.72,2.54,1.13,1.3.56,2.49,1.12,3.58,1.68,1.09.56,2.04,1.2,2.83,1.92.8.72,1.42,1.56,1.88,2.52.46.96.69,2.13.69,3.52,0,1.18-.24,2.31-.73,3.41-.49,1.09-1.2,2.05-2.14,2.87-.94.83-2.09,1.48-3.45,1.97-1.36.49-2.92.73-4.69.73-1.15,0-2.28-.13-3.38-.4-1.11-.27-2.15-.66-3.12-1.19s-1.86-1.18-2.65-1.95c-.8-.77-1.48-1.65-2.04-2.65l4.42-3.36c.74,1.33,1.69,2.36,2.85,3.1,1.16.74,2.5,1.11,4,1.11.77,0,1.47-.09,2.1-.29.63-.19,1.17-.44,1.61-.75.44-.31.78-.67,1.02-1.08.24-.41.35-.86.35-1.33,0-.68-.15-1.25-.46-1.73-.31-.47-.77-.89-1.37-1.26-.6-.37-1.33-.74-2.19-1.1-.86-.37-1.81-.79-2.87-1.26-1.09-.5-2.15-1-3.19-1.5-1.03-.5-1.95-1.1-2.74-1.79-.8-.69-1.44-1.53-1.93-2.5-.49-.97-.73-2.15-.73-3.54,0-1.3.26-2.49.8-3.58.53-1.09,1.27-2.03,2.21-2.83.94-.8,2.06-1.42,3.36-1.88,1.3-.46,2.71-.69,4.25-.69,1.03,0,2.04.11,3.01.33.97.22,1.9.57,2.79,1.04.89.47,1.7,1.05,2.43,1.75.74.69,1.37,1.51,1.9,2.45l-4.34,3.23c-.77-1.21-1.66-2.09-2.68-2.65"/>
          <rect class="cls-1" x="326.45" y="58.45" width="5.84" height="31.41"/>
          <polygon class="cls-1" points="366.53 58.45 366.53 89.86 361.53 89.86 345.91 68.49 345.91 89.86 340.07 89.86 340.07 58.45 345.07 58.45 360.69 79.68 360.69 58.45 366.53 58.45"/>
          <path class="cls-1" d="M399.28,86.03c-.93.9-1.95,1.67-3.07,2.3-1.12.63-2.34,1.14-3.65,1.5-1.31.37-2.71.55-4.18.55-2.3,0-4.45-.41-6.44-1.24-1.99-.82-3.71-1.97-5.15-3.43-1.45-1.46-2.58-3.18-3.41-5.15-.83-1.97-1.24-4.11-1.24-6.41s.4-4.44,1.22-6.41c.81-1.98,1.94-3.69,3.39-5.15,1.44-1.46,3.15-2.6,5.13-3.43,1.98-.83,4.13-1.24,6.46-1.24,1.5,0,2.92.17,4.25.51s2.54.82,3.65,1.44c1.11.62,2.1,1.36,2.99,2.21.88.86,1.64,1.8,2.26,2.83l-4.34,3.63c-.44-.71-.96-1.37-1.57-1.99-.6-.62-1.28-1.15-2.04-1.59-.75-.44-1.57-.79-2.45-1.04-.89-.25-1.81-.38-2.79-.38-1.47,0-2.83.27-4.07.82-1.24.55-2.31,1.29-3.21,2.23-.9.94-1.6,2.06-2.1,3.36-.5,1.3-.75,2.7-.75,4.2s.26,2.9.77,4.2c.52,1.3,1.22,2.42,2.12,3.36.9.94,1.97,1.69,3.21,2.23,1.24.55,2.58.82,4.03.82,2.01,0,3.75-.46,5.24-1.37,1.49-.91,2.75-2.17,3.78-3.76l4.38,3.45c-.68,1.06-1.48,2.04-2.41,2.94"/>
        </g>
      </g>
      <g>
        <path class="cls-1" d="M67.36,116.93h-4.62l.33-1.96h11.39l-.33,1.96h-4.62l-2.37,13.41h-2.16l2.37-13.41Z"/>
        <path class="cls-1" d="M78.68,114.97l-1.02,5.88c.2-.25.43-.48.69-.7.25-.22.54-.41.86-.57.32-.16.67-.29,1.05-.38.38-.09.79-.14,1.24-.14.61,0,1.16.11,1.64.32.49.21.89.51,1.2.9.31.39.53.87.64,1.45.12.57.11,1.22-.02,1.95l-1.18,6.66h-2.11l1.15-6.58c.09-.46.09-.87.01-1.21-.08-.34-.22-.63-.41-.86-.2-.23-.44-.41-.73-.52s-.61-.17-.96-.17c-.57,0-1.07.11-1.5.33s-.81.49-1.11.83c-.31.33-.55.71-.73,1.13-.18.42-.31.83-.38,1.24l-1.02,5.81h-2.11l2.7-15.37h2.11Z"/>
        <path class="cls-1" d="M95.98,119.46c.59.27,1.06.63,1.42,1.1.36.46.6,1,.73,1.62.13.62.13,1.28,0,1.99-.03.2-.07.41-.13.62-.06.21-.12.4-.2.58h-8.34c-.04.52,0,.99.15,1.39.15.41.36.75.64,1.03.28.28.63.5,1.03.64.41.15.85.22,1.33.22.65,0,1.26-.13,1.82-.38s1.07-.59,1.54-1.01l1.02,1.48c-.74.64-1.5,1.11-2.28,1.4-.78.3-1.61.45-2.49.45s-1.67-.15-2.34-.45c-.67-.3-1.22-.7-1.64-1.22-.42-.52-.72-1.12-.88-1.82-.17-.7-.18-1.45-.03-2.26.15-.81.42-1.57.82-2.28s.89-1.32,1.47-1.84c.58-.52,1.24-.93,1.97-1.23.73-.3,1.51-.45,2.34-.45.78,0,1.47.13,2.06.4ZM92.4,121.14c-.39.12-.75.3-1.08.53-.33.23-.62.52-.87.85-.25.33-.46.71-.62,1.13h6.31v-.02c.04-.41.01-.78-.1-1.11-.11-.33-.28-.62-.5-.85-.22-.23-.5-.41-.83-.53-.33-.12-.69-.18-1.1-.18s-.83.06-1.22.18Z"/>
        <path class="cls-1" d="M108.14,114.97h2.16l-2.7,15.37h-2.16l2.7-15.37Z"/>
        <path class="cls-1" d="M115.94,120.19c.26-.23.55-.43.87-.6.32-.17.67-.3,1.07-.39.39-.09.81-.14,1.26-.14.62,0,1.18.11,1.67.32.49.21.89.51,1.2.9.31.39.52.87.63,1.45.11.57.1,1.22-.03,1.95l-1.18,6.66h-2.11l1.15-6.58c.09-.46.09-.87.01-1.21-.08-.34-.21-.63-.4-.86s-.43-.41-.73-.52c-.3-.12-.62-.17-.97-.17-.57,0-1.07.12-1.5.36-.44.24-.81.54-1.12.9-.31.36-.56.77-.75,1.21-.19.44-.32.87-.39,1.27l-.98,5.6h-2.11l1.94-11.02h2.07l-.28,1.65c.2-.29.44-.55.7-.78Z"/>
        <path class="cls-1" d="M130.4,130.23c-.23.12-.5.21-.81.27-.3.07-.65.1-1.02.1-.54,0-1.01-.08-1.41-.24-.4-.16-.72-.39-.97-.69s-.41-.66-.49-1.1c-.08-.44-.07-.93.03-1.48l1.07-6.01h-1.65l.3-1.76h1.72l.54-3.03h2.05l-.54,3.03h2.83l-.3,1.76h-2.83l-1.02,5.75c-.12.62-.05,1.08.2,1.37s.67.44,1.29.44c.12,0,.3-.02.55-.05s.53-.13.82-.29l-.35,1.94Z"/>
        <path class="cls-1" d="M141.36,119.46c.59.27,1.06.63,1.42,1.1.36.46.6,1,.73,1.62.13.62.13,1.28,0,1.99-.03.2-.07.41-.13.62-.06.21-.12.4-.2.58h-8.34c-.04.52,0,.99.15,1.39.15.41.36.75.64,1.03.28.28.63.5,1.03.64.41.15.85.22,1.33.22.65,0,1.26-.13,1.82-.38s1.07-.59,1.54-1.01l1.02,1.48c-.74.64-1.5,1.11-2.28,1.4-.78.3-1.61.45-2.49.45s-1.67-.15-2.34-.45c-.67-.3-1.22-.7-1.64-1.22-.42-.52-.72-1.12-.88-1.82-.17-.7-.18-1.45-.03-2.26.15-.81.42-1.57.82-2.28s.89-1.32,1.47-1.84c.58-.52,1.24-.93,1.97-1.23.73-.3,1.51-.45,2.34-.45.78,0,1.47.13,2.06.4ZM137.78,121.14c-.39.12-.75.3-1.08.53-.33.23-.62.52-.87.85-.25.33-.46.71-.62,1.13h6.31v-.02c.04-.41.01-.78-.1-1.11-.11-.33-.28-.62-.5-.85-.22-.23-.5-.41-.83-.53-.33-.12-.69-.18-1.1-.18s-.83.06-1.22.18Z"/>
        <path class="cls-1" d="M147.73,114.97h2.11l-2.16,12.26c-.03.2-.04.39-.04.57s.02.33.08.46c.05.13.14.23.26.31.12.07.29.11.49.11.1,0,.21,0,.33-.02s.25-.05.41-.11l-.35,1.89c-.17.07-.34.12-.51.14s-.33.03-.49.03c-.36,0-.71-.05-1.03-.14-.33-.09-.61-.26-.84-.49s-.4-.54-.49-.93c-.09-.38-.09-.87.01-1.45l2.22-12.63Z"/>
        <path class="cls-1" d="M153.91,114.97h2.11l-2.16,12.26c-.03.2-.04.39-.04.57s.02.33.08.46c.05.13.14.23.26.31.12.07.29.11.49.11.1,0,.21,0,.33-.02s.25-.05.41-.11l-.35,1.89c-.17.07-.34.12-.51.14s-.33.03-.49.03c-.36,0-.71-.05-1.03-.14-.33-.09-.61-.26-.84-.49s-.4-.54-.49-.93c-.09-.38-.09-.87.01-1.45l2.22-12.63Z"/>
        <path class="cls-1" d="M159.46,119.32h2.11l-1.94,11.02h-2.11l1.94-11.02ZM162.23,115.09c.22.25.29.57.22.95-.07.38-.26.7-.57.96-.3.26-.64.39-1,.39s-.65-.13-.87-.39c-.22-.26-.29-.58-.22-.96.07-.38.26-.69.57-.95s.64-.38,1-.38.65.13.87.38Z"/>
        <path class="cls-1" d="M172.72,131.9c-.38.63-.85,1.17-1.4,1.62-.56.45-1.2.8-1.92,1.06-.72.25-1.48.38-2.3.38-1.09,0-2.03-.21-2.83-.62-.8-.41-1.4-.98-1.81-1.69l1.66-1.33c.3.52.74.94,1.29,1.25.56.31,1.24.47,2.04.47.52,0,1.01-.08,1.47-.24.46-.16.86-.39,1.21-.7.35-.3.64-.67.88-1.1.24-.43.4-.9.49-1.43l1.98.22c-.13.77-.38,1.47-.76,2.1ZM170.92,129.45c-.3.23-.64.44-1,.61-.36.17-.74.31-1.14.4-.4.09-.79.14-1.17.14-.74,0-1.4-.15-1.98-.44-.58-.29-1.06-.69-1.45-1.2-.38-.51-.65-1.11-.78-1.82-.14-.7-.13-1.48.01-2.32.14-.84.41-1.62.81-2.32.39-.7.87-1.31,1.43-1.83.56-.51,1.18-.91,1.86-1.2.68-.28,1.39-.42,2.13-.42.38,0,.74.05,1.1.14.36.09.68.22.97.38.29.16.54.35.76.57s.38.45.5.7l.26-1.52h2.11l-1.85,10.47-1.98-.22.15-.87c-.19.26-.44.51-.74.74ZM169.66,128.39c.44-.18.85-.44,1.22-.78s.69-.75.96-1.22.45-.99.55-1.56c.1-.58.1-1.11,0-1.58-.1-.47-.28-.87-.53-1.21s-.57-.59-.95-.77c-.38-.18-.8-.27-1.26-.27s-.9.09-1.35.27c-.45.18-.86.44-1.24.78-.38.34-.7.75-.97,1.22s-.45.99-.55,1.56-.1,1.08,0,1.56.28.88.54,1.22c.26.34.58.6.97.78.38.18.8.27,1.25.27s.92-.09,1.36-.27Z"/>
        <path class="cls-1" d="M185.76,119.46c.59.27,1.06.63,1.42,1.1.36.46.6,1,.73,1.62.13.62.13,1.28,0,1.99-.03.2-.07.41-.13.62-.06.21-.12.4-.2.58h-8.34c-.04.52,0,.99.15,1.39.15.41.36.75.64,1.03.28.28.63.5,1.03.64.41.15.85.22,1.33.22.65,0,1.26-.13,1.82-.38s1.07-.59,1.54-1.01l1.02,1.48c-.74.64-1.5,1.11-2.28,1.4-.78.3-1.61.45-2.49.45s-1.67-.15-2.34-.45c-.67-.3-1.22-.7-1.64-1.22-.42-.52-.72-1.12-.88-1.82-.17-.7-.18-1.45-.03-2.26.15-.81.42-1.57.82-2.28s.89-1.32,1.47-1.84c.58-.52,1.24-.93,1.97-1.23.73-.3,1.51-.45,2.34-.45.78,0,1.47.13,2.06.4ZM182.17,121.14c-.39.12-.75.3-1.08.53-.33.23-.62.52-.87.85-.25.33-.46.71-.62,1.13h6.31v-.02c.04-.41.01-.78-.1-1.11-.11-.33-.28-.62-.5-.85-.22-.23-.5-.41-.83-.53-.33-.12-.69-.18-1.1-.18s-.83.06-1.22.18Z"/>
        <path class="cls-1" d="M193.98,120.19c.26-.23.55-.43.87-.6.32-.17.67-.3,1.07-.39.39-.09.81-.14,1.26-.14.62,0,1.18.11,1.67.32.49.21.89.51,1.2.9.31.39.52.87.63,1.45.11.57.1,1.22-.03,1.95l-1.18,6.66h-2.11l1.15-6.58c.09-.46.09-.87.01-1.21-.08-.34-.21-.63-.4-.86s-.43-.41-.73-.52c-.3-.12-.62-.17-.97-.17-.57,0-1.07.12-1.5.36-.44.24-.81.54-1.12.9-.31.36-.56.77-.75,1.21-.19.44-.32.87-.39,1.27l-.98,5.6h-2.11l1.94-11.02h2.07l-.28,1.65c.2-.29.44-.55.7-.78Z"/>
        <path class="cls-1" d="M208.43,130.23c-.23.12-.5.21-.81.27-.3.07-.65.1-1.02.1-.54,0-1.01-.08-1.41-.24-.4-.16-.72-.39-.97-.69s-.41-.66-.49-1.1c-.08-.44-.07-.93.03-1.48l1.07-6.01h-1.65l.3-1.76h1.72l.54-3.03h2.05l-.54,3.03h2.83l-.3,1.76h-2.83l-1.02,5.75c-.12.62-.05,1.08.2,1.37s.67.44,1.29.44c.12,0,.3-.02.55-.05s.53-.13.82-.29l-.35,1.94Z"/>
        <path class="cls-1" d="M220.96,130.34h-2.22l-1.94-15.37h2.24l1.39,12.26,5.97-12.26h2.26l1.66,12.26,5.71-12.26h2.24l-7.34,15.37h-2.22l-1.74-12.15-6.01,12.15Z"/>
        <path class="cls-1" d="M245.39,128.71c-.19.26-.44.51-.74.74s-.64.44-1,.61c-.36.17-.74.31-1.14.4-.4.09-.79.14-1.17.14-.74,0-1.4-.15-1.98-.44-.58-.29-1.06-.69-1.45-1.2-.38-.51-.65-1.11-.78-1.82-.14-.7-.13-1.48.01-2.32.14-.84.41-1.62.81-2.32.39-.7.87-1.31,1.43-1.83.56-.51,1.18-.91,1.86-1.2.68-.28,1.39-.42,2.13-.42.38,0,.74.05,1.1.14.36.09.68.22.97.38.29.16.54.35.76.57s.38.45.5.7l.26-1.52h2.11l-1.94,11.02h-2.03l.28-1.63ZM242.03,128.66c.46,0,.92-.09,1.36-.27.44-.18.85-.44,1.22-.78s.69-.75.96-1.22.45-.99.55-1.56c.1-.58.1-1.11,0-1.58-.1-.47-.28-.87-.53-1.21s-.57-.59-.95-.77c-.38-.18-.8-.27-1.26-.27s-.9.09-1.35.27c-.45.18-.86.44-1.24.78-.38.34-.7.75-.97,1.22s-.45.99-.55,1.56-.1,1.08,0,1.56.28.88.54,1.22c.26.34.58.6.97.78.38.18.8.27,1.25.27Z"/>
        <path class="cls-1" d="M249.44,132.78c.26.19.51.3.76.33.25.03.44.04.57.04.25,0,.47-.04.67-.11.2-.07.4-.18.59-.32.19-.14.37-.32.53-.53s.33-.48.49-.78l.67-1.22-2.66-10.87h2.37l1.74,8.34,4.57-8.34h2.29l-7.38,12.83c-.23.42-.48.8-.73,1.14s-.54.63-.86.88-.67.44-1.07.58-.84.21-1.35.21c-.22,0-.46-.01-.72-.04-.26-.03-.54-.11-.83-.24l.33-1.89Z"/>
        <path class="cls-1" d="M272.8,130.23c-.23.12-.5.21-.81.27-.3.07-.65.1-1.02.1-.54,0-1.01-.08-1.41-.24-.4-.16-.72-.39-.97-.69s-.41-.66-.49-1.1c-.08-.44-.07-.93.03-1.48l1.07-6.01h-1.65l.3-1.76h1.72l.54-3.03h2.05l-.54,3.03h2.83l-.3,1.76h-2.83l-1.02,5.75c-.12.62-.05,1.08.2,1.37s.67.44,1.29.44c.12,0,.3-.02.55-.05s.53-.13.82-.29l-.35,1.94Z"/>
        <path class="cls-1" d="M284.02,119.51c.65.3,1.18.7,1.6,1.22.42.52.71,1.12.88,1.83.17.7.18,1.46.03,2.28-.15.81-.42,1.57-.84,2.28-.41.7-.92,1.31-1.52,1.83s-1.28.92-2.03,1.22c-.75.3-1.53.45-2.34.45s-1.54-.15-2.19-.45c-.65-.3-1.18-.7-1.6-1.22-.42-.52-.71-1.12-.87-1.83-.16-.7-.17-1.46-.02-2.28.15-.81.42-1.57.83-2.28.41-.7.91-1.31,1.51-1.83s1.28-.92,2.03-1.22c.75-.3,1.53-.45,2.34-.45s1.54.15,2.19.45ZM280,121.37c-.47.2-.89.48-1.26.82s-.68.74-.94,1.2-.42.94-.51,1.45-.09.99,0,1.45c.09.46.26.86.51,1.2s.58.61.98.82.86.3,1.38.3,1.02-.1,1.49-.3.89-.48,1.26-.82.69-.74.95-1.2c.26-.46.43-.94.52-1.45.09-.51.08-.99-.01-1.45-.09-.46-.27-.86-.52-1.2s-.58-.61-.98-.82-.86-.31-1.38-.31-1.02.1-1.49.31Z"/>
        <path class="cls-1" d="M296.69,114.97h5.33c.73,0,1.36.09,1.92.28.55.19,1.01.46,1.37.82.36.36.62.78.76,1.29.14.5.16,1.06.04,1.69-.09.44-.22.84-.4,1.22-.18.38-.4.72-.64,1.01-.25.3-.51.55-.79.76-.28.21-.56.37-.84.49.28.09.54.23.81.42.26.2.49.44.67.74.19.3.32.65.4,1.05.08.4.08.85-.01,1.36-.12.65-.34,1.24-.67,1.76s-.75.97-1.25,1.34-1.08.65-1.73.85-1.35.29-2.09.29h-5.57l2.7-15.37ZM299.95,128.36c.41,0,.79-.07,1.14-.2.36-.13.67-.3.95-.52.28-.22.5-.48.69-.77.18-.3.3-.62.36-.97.06-.33.04-.65-.05-.94-.09-.29-.25-.54-.48-.76-.23-.22-.51-.39-.85-.51-.34-.12-.73-.18-1.17-.18h-3.2l-.85,4.86h3.46ZM300.87,121.7c.42,0,.8-.07,1.14-.2.34-.13.63-.31.88-.53.25-.22.45-.49.61-.79.16-.3.27-.62.33-.96.12-.62-.01-1.16-.38-1.61-.37-.45-.97-.67-1.8-.67h-3.13l-.85,4.77h3.2Z"/>
        <path class="cls-1" d="M314.8,129.47c-.26.23-.55.43-.87.6-.32.17-.67.3-1.06.39-.38.09-.81.14-1.27.14-.62,0-1.18-.11-1.67-.32-.49-.21-.88-.51-1.19-.9s-.52-.87-.63-1.45c-.12-.57-.11-1.22.02-1.95l1.18-6.66h2.11l-1.15,6.58c-.09.45-.09.85-.01,1.2.08.35.22.64.41.87.2.23.44.41.74.52.3.12.62.17.97.17.57,0,1.07-.12,1.5-.36s.81-.54,1.12-.9c.31-.36.56-.77.74-1.21.18-.44.31-.87.38-1.27l.98-5.6h2.11l-1.94,11.02h-2.07l.28-1.66c-.2.29-.44.55-.7.78Z"/>
        <path class="cls-1" d="M322.84,119.32h2.11l-1.94,11.02h-2.11l1.94-11.02ZM325.6,115.09c.22.25.29.57.22.95-.07.38-.26.7-.57.96-.3.26-.64.39-1,.39s-.65-.13-.87-.39c-.22-.26-.29-.58-.22-.96.07-.38.26-.69.57-.95s.64-.38,1-.38.65.13.87.38Z"/>
        <path class="cls-1" d="M329.19,114.97h2.11l-2.16,12.26c-.03.2-.04.39-.04.57s.02.33.08.46c.05.13.14.23.26.31.12.07.29.11.49.11.1,0,.21,0,.33-.02s.25-.05.41-.11l-.35,1.89c-.17.07-.34.12-.51.14s-.33.03-.49.03c-.36,0-.71-.05-1.03-.14-.33-.09-.61-.26-.84-.49s-.4-.54-.49-.93c-.09-.38-.09-.87.01-1.45l2.22-12.63Z"/>
        <path class="cls-1" d="M340.3,129.45c-.3.23-.64.44-1,.61-.36.17-.74.31-1.14.4-.4.09-.79.14-1.17.14-.74,0-1.4-.15-1.98-.44-.58-.29-1.06-.69-1.45-1.2-.38-.51-.65-1.11-.78-1.82-.14-.7-.13-1.48.01-2.32.14-.84.41-1.62.81-2.32.39-.7.87-1.31,1.43-1.83.56-.51,1.18-.91,1.86-1.2.68-.28,1.39-.42,2.13-.42.38,0,.74.05,1.1.14.36.09.68.22.97.38.29.16.54.35.76.57s.38.45.5.7l1.02-5.88h2.11l-2.7,15.37h-2.03l.28-1.63c-.19.26-.44.51-.74.74ZM339.05,128.39c.44-.18.85-.44,1.22-.78s.69-.75.96-1.22.45-.99.55-1.56c.1-.58.1-1.11,0-1.58-.1-.47-.28-.87-.53-1.21s-.57-.59-.95-.77c-.38-.18-.8-.27-1.26-.27s-.9.09-1.35.27c-.45.18-.86.44-1.24.78-.38.34-.7.75-.97,1.22s-.45.99-.55,1.56-.1,1.08,0,1.56.28.88.54,1.22c.26.34.58.6.97.78.38.18.8.27,1.25.27s.92-.09,1.36-.27Z"/>
      </g>
    </g>
  </g>
</svg>