<svg width="800" height="800" viewBox="0 0 800 800" fill="none" xmlns="http://www.w3.org/2000/svg">
<path d="M741.676 192.537C686.212 101.093 598.627 36.8515 495.106 11.5161C463.857 3.85945 431.799 0 399.927 0C215.172 0 55.4402 125.308 11.6167 304.772C-13.781 408.355 2.77731 515.797 58.2414 607.241C113.705 698.685 201.29 762.989 304.873 788.324C336.122 795.981 368.118 799.84 400.052 799.84C584.745 799.84 744.477 674.47 788.425 494.944C813.76 391.361 797.202 283.981 741.738 192.537H741.676ZM307.861 776.123C207.515 751.597 122.669 689.286 68.9482 600.705C15.2272 512.124 -0.770895 408.106 23.8176 307.76C66.2715 133.898 220.961 12.5121 399.927 12.5121C430.865 12.5121 461.865 16.247 492.118 23.717C592.402 48.2431 677.248 110.492 730.969 199.073C784.69 287.654 800.75 391.672 776.224 491.956C733.583 665.818 578.894 787.266 400.052 787.266C369.176 787.266 338.114 783.531 307.861 776.061V776.123Z" fill="#3E3E3E" fill-opacity="0.03"/>
<path d="M401.797 169.689L323.426 217.87L323.55 177.782H267.463V252.294L94.0371 358.927L122.049 406.61L267.463 320.457V488.779H325.853V426.779C325.729 380.528 372.167 359.238 399.992 359.238C427.817 359.238 473.508 374.676 474.131 426.779V488.779H532.521V424.227C532.521 386.815 520.444 364.965 509.551 351.768C489.133 327.678 456.95 303.961 399.868 303.961C366.253 303.961 341.353 316.286 323.052 329.981L323.176 287.465L401.735 240.903L680.114 397.024L705.823 346.913L401.735 169.814L401.797 169.689Z" fill="#3E3E3E" fill-opacity="0.03"/>
<path d="M577.402 439.29V488.093C577.527 533.909 531.151 556.194 503.263 556.194C475.376 556.194 429.747 539.698 429.125 488.093V439.29H370.735V488.093C370.797 533.909 324.421 556.194 296.596 556.194C268.771 556.194 223.08 539.698 222.457 488.093V439.29H164.067V490.645C164.067 527.684 176.144 549.346 187.037 562.356C207.455 586.26 239.638 609.666 296.72 609.666C326.289 609.666 372.042 597.403 399.93 569.017C420.534 590.369 451.659 609.666 503.388 609.666C537.002 609.666 591.595 593.855 616.93 556.505C626.704 542.125 635.792 521.147 635.792 500.418V439.228H577.402V439.29Z" fill="#3E3E3E" fill-opacity="0.03"/>
</svg>
